
<svg width="317" height="294" viewBox="0 0 317 294" fill="none" xmlns="http://www.w3.org/2000/svg">
<path d="M169.595 7.59526C171.696 7.59526 173.399 5.89501 173.399 3.79763C173.399 1.70026 171.696 0 169.595 0C167.494 0 165.791 1.70026 165.791 3.79763C165.791 5.89501 167.494 7.59526 169.595 7.59526Z" fill="#44C2AB"/>
<path d="M180.69 7.59526C182.791 7.59526 184.494 5.89501 184.494 3.79763C184.494 1.70026 182.791 0 180.69 0C178.589 0 176.886 1.70026 176.886 3.79763C176.886 5.89501 178.589 7.59526 180.69 7.59526Z" fill="#44C2AB"/>
<path d="M191.785 7.59526C193.886 7.59526 195.589 5.89501 195.589 3.79763C195.589 1.70026 193.886 0 191.785 0C189.684 0 187.981 1.70026 187.981 3.79763C187.981 5.89501 189.684 7.59526 191.785 7.59526Z" fill="#44C2AB"/>
<path d="M158.5 18.3553C160.601 18.3553 162.304 16.655 162.304 14.5576C162.304 12.4603 160.601 10.76 158.5 10.76C156.399 10.76 154.696 12.4603 154.696 14.5576C154.696 16.655 156.399 18.3553 158.5 18.3553Z" fill="#44C2AB"/>
<path d="M169.595 18.3553C171.696 18.3553 173.399 16.655 173.399 14.5576C173.399 12.4603 171.696 10.76 169.595 10.76C167.494 10.76 165.791 12.4603 165.791 14.5576C165.791 16.655 167.494 18.3553 169.595 18.3553Z" fill="#44C2AB"/>
<path d="M180.69 18.3553C182.791 18.3553 184.494 16.655 184.494 14.5576C184.494 12.4603 182.791 10.76 180.69 10.76C178.589 10.76 176.886 12.4603 176.886 14.5576C176.886 16.655 178.589 18.3553 180.69 18.3553Z" fill="#44C2AB"/>
<path d="M191.785 18.3553C193.886 18.3553 195.589 16.655 195.589 14.5576C195.589 12.4603 193.886 10.76 191.785 10.76C189.684 10.76 187.981 12.4603 187.981 14.5576C187.981 16.655 189.684 18.3553 191.785 18.3553Z" fill="#44C2AB"/>
<path d="M147.405 29.4317C149.506 29.4317 151.209 27.7314 151.209 25.6341C151.209 23.5367 149.506 21.8364 147.405 21.8364C145.304 21.8364 143.601 23.5367 143.601 25.6341C143.601 27.7314 145.304 29.4317 147.405 29.4317Z" fill="#44C2AB"/>
<path d="M158.5 29.4317C160.601 29.4317 162.304 27.7314 162.304 25.6341C162.304 23.5367 160.601 21.8364 158.5 21.8364C156.399 21.8364 154.696 23.5367 154.696 25.6341C154.696 27.7314 156.399 29.4317 158.5 29.4317Z" fill="#44C2AB"/>
<path d="M169.595 29.4317C171.696 29.4317 173.399 27.7314 173.399 25.6341C173.399 23.5367 171.696 21.8364 169.595 21.8364C167.494 21.8364 165.791 23.5367 165.791 25.6341C165.791 27.7314 167.494 29.4317 169.595 29.4317Z" fill="#44C2AB"/>
<path d="M180.69 29.4317C182.791 29.4317 184.494 27.7314 184.494 25.6341C184.494 23.5367 182.791 21.8364 180.69 21.8364C178.589 21.8364 176.886 23.5367 176.886 25.6341C176.886 27.7314 178.589 29.4317 180.69 29.4317Z" fill="#44C2AB"/>
<path d="M147.405 40.5081C149.506 40.5081 151.209 38.8078 151.209 36.7105C151.209 34.6131 149.506 32.9128 147.405 32.9128C145.304 32.9128 143.601 34.6131 143.601 36.7105C143.601 38.8078 145.304 40.5081 147.405 40.5081Z" fill="#44C2AB"/>
<path d="M158.5 40.5081C160.601 40.5081 162.304 38.8078 162.304 36.7105C162.304 34.6131 160.601 32.9128 158.5 32.9128C156.399 32.9128 154.696 34.6131 154.696 36.7105C154.696 38.8078 156.399 40.5081 158.5 40.5081Z" fill="#44C2AB"/>
<path d="M169.595 40.5081C171.696 40.5081 173.399 38.8078 173.399 36.7105C173.399 34.6131 171.696 32.9128 169.595 32.9128C167.494 32.9128 165.791 34.6131 165.791 36.7105C165.791 38.8078 167.494 40.5081 169.595 40.5081Z" fill="#44C2AB"/>
<path d="M180.69 40.5081C182.791 40.5081 184.494 38.8078 184.494 36.7105C184.494 34.6131 182.791 32.9128 180.69 32.9128C178.589 32.9128 176.886 34.6131 176.886 36.7105C176.886 38.8078 178.589 40.5081 180.69 40.5081Z" fill="#44C2AB"/>
<path d="M125.215 51.5845C127.316 51.5845 129.019 49.8843 129.019 47.7869C129.019 45.6895 127.316 43.9893 125.215 43.9893C123.114 43.9893 121.411 45.6895 121.411 47.7869C121.411 49.8843 123.114 51.5845 125.215 51.5845Z" fill="#44C2AB"/>
<path d="M147.405 51.5845C149.506 51.5845 151.209 49.8843 151.209 47.7869C151.209 45.6895 149.506 43.9893 147.405 43.9893C145.304 43.9893 143.601 45.6895 143.601 47.7869C143.601 49.8843 145.304 51.5845 147.405 51.5845Z" fill="#44C2AB"/>
<path d="M158.5 51.5845C160.601 51.5845 162.304 49.8843 162.304 47.7869C162.304 45.6895 160.601 43.9893 158.5 43.9893C156.399 43.9893 154.696 45.6895 154.696 47.7869C154.696 49.8843 156.399 51.5845 158.5 51.5845Z" fill="#44C2AB"/>
<path d="M169.595 51.5845C171.696 51.5845 173.399 49.8843 173.399 47.7869C173.399 45.6895 171.696 43.9893 169.595 43.9893C167.494 43.9893 165.791 45.6895 165.791 47.7869C165.791 49.8843 167.494 51.5845 169.595 51.5845Z" fill="#44C2AB"/>
<path d="M180.69 51.5845C182.791 51.5845 184.494 49.8843 184.494 47.7869C184.494 45.6895 182.791 43.9893 180.69 43.9893C178.589 43.9893 176.886 45.6895 176.886 47.7869C176.886 49.8843 178.589 51.5845 180.69 51.5845Z" fill="#44C2AB"/>
<path d="M103.342 62.6609C105.443 62.6609 107.146 60.9607 107.146 58.8633C107.146 56.7659 105.443 55.0657 103.342 55.0657C101.241 55.0657 99.538 56.7659 99.538 58.8633C99.538 60.9607 101.241 62.6609 103.342 62.6609Z" fill="#44C2AB"/>
<path d="M114.437 62.6609C116.538 62.6609 118.241 60.9607 118.241 58.8633C118.241 56.7659 116.538 55.0657 114.437 55.0657C112.336 55.0657 110.633 56.7659 110.633 58.8633C110.633 60.9607 112.336 62.6609 114.437 62.6609Z" fill="#44C2AB"/>
<path d="M125.215 62.6609C127.316 62.6609 129.019 60.9607 129.019 58.8633C129.019 56.7659 127.316 55.0657 125.215 55.0657C123.114 55.0657 121.411 56.7659 121.411 58.8633C121.411 60.9607 123.114 62.6609 125.215 62.6609Z" fill="#44C2AB"/>
<path d="M136.31 62.6609C138.411 62.6609 140.114 60.9607 140.114 58.8633C140.114 56.7659 138.411 55.0657 136.31 55.0657C134.209 55.0657 132.506 56.7659 132.506 58.8633C132.506 60.9607 134.209 62.6609 136.31 62.6609Z" fill="#44C2AB"/>
<path d="M158.5 62.6609C160.601 62.6609 162.304 60.9607 162.304 58.8633C162.304 56.7659 160.601 55.0657 158.5 55.0657C156.399 55.0657 154.696 56.7659 154.696 58.8633C154.696 60.9607 156.399 62.6609 158.5 62.6609Z" fill="#44C2AB"/>
<path d="M169.595 62.6609C171.696 62.6609 173.399 60.9607 173.399 58.8633C173.399 56.7659 171.696 55.0657 169.595 55.0657C167.494 55.0657 165.791 56.7659 165.791 58.8633C165.791 60.9607 167.494 62.6609 169.595 62.6609Z" fill="#44C2AB"/>
<path d="M180.69 62.6609C182.791 62.6609 184.494 60.9607 184.494 58.8633C184.494 56.7659 182.791 55.0657 180.69 55.0657C178.589 55.0657 176.886 56.7659 176.886 58.8633C176.886 60.9607 178.589 62.6609 180.69 62.6609Z" fill="#44C2AB"/>
<path d="M92.247 73.7374C94.3479 73.7374 96.051 72.0371 96.051 69.9397C96.051 67.8423 94.3479 66.1421 92.247 66.1421C90.1461 66.1421 88.443 67.8423 88.443 69.9397C88.443 72.0371 90.1461 73.7374 92.247 73.7374Z" fill="#44C2AB"/>
<path d="M103.342 73.7374C105.443 73.7374 107.146 72.0371 107.146 69.9397C107.146 67.8423 105.443 66.1421 103.342 66.1421C101.241 66.1421 99.538 67.8423 99.538 69.9397C99.538 72.0371 101.241 73.7374 103.342 73.7374Z" fill="#44C2AB"/>
<path d="M114.437 73.7374C116.538 73.7374 118.241 72.0371 118.241 69.9397C118.241 67.8423 116.538 66.1421 114.437 66.1421C112.336 66.1421 110.633 67.8423 110.633 69.9397C110.633 72.0371 112.336 73.7374 114.437 73.7374Z" fill="#44C2AB"/>
<path d="M125.215 73.7374C127.316 73.7374 129.019 72.0371 129.019 69.9397C129.019 67.8423 127.316 66.1421 125.215 66.1421C123.114 66.1421 121.411 67.8423 121.411 69.9397C121.411 72.0371 123.114 73.7374 125.215 73.7374Z" fill="#44C2AB"/>
<path d="M136.31 73.7374C138.411 73.7374 140.114 72.0371 140.114 69.9397C140.114 67.8423 138.411 66.1421 136.31 66.1421C134.209 66.1421 132.506 67.8423 132.506 69.9397C132.506 72.0371 134.209 73.7374 136.31 73.7374Z" fill="#44C2AB"/>
<path d="M147.405 73.7374C149.506 73.7374 151.209 72.0371 151.209 69.9397C151.209 67.8423 149.506 66.1421 147.405 66.1421C145.304 66.1421 143.601 67.8423 143.601 69.9397C143.601 72.0371 145.304 73.7374 147.405 73.7374Z" fill="#44C2AB"/>
<path d="M158.5 73.7374C160.601 73.7374 162.304 72.0371 162.304 69.9397C162.304 67.8423 160.601 66.1421 158.5 66.1421C156.399 66.1421 154.696 67.8423 154.696 69.9397C154.696 72.0371 156.399 73.7374 158.5 73.7374Z" fill="#44C2AB"/>
<path d="M169.595 73.7374C171.696 73.7374 173.399 72.0371 173.399 69.9397C173.399 67.8423 171.696 66.1421 169.595 66.1421C167.494 66.1421 165.791 67.8423 165.791 69.9397C165.791 72.0371 167.494 73.7374 169.595 73.7374Z" fill="#44C2AB"/>
<path d="M103.342 84.4974C105.443 84.4974 107.146 82.7971 107.146 80.6997C107.146 78.6024 105.443 76.9021 103.342 76.9021C101.241 76.9021 99.538 78.6024 99.538 80.6997C99.538 82.7971 101.241 84.4974 103.342 84.4974Z" fill="#44C2AB"/>
<path d="M114.437 84.4974C116.538 84.4974 118.241 82.7971 118.241 80.6997C118.241 78.6024 116.538 76.9021 114.437 76.9021C112.336 76.9021 110.633 78.6024 110.633 80.6997C110.633 82.7971 112.336 84.4974 114.437 84.4974Z" fill="#44C2AB"/>
<path d="M125.215 84.4974C127.316 84.4974 129.019 82.7971 129.019 80.6997C129.019 78.6024 127.316 76.9021 125.215 76.9021C123.114 76.9021 121.411 78.6024 121.411 80.6997C121.411 82.7971 123.114 84.4974 125.215 84.4974Z" fill="#44C2AB"/>
<path d="M136.31 84.4974C138.411 84.4974 140.114 82.7971 140.114 80.6997C140.114 78.6024 138.411 76.9021 136.31 76.9021C134.209 76.9021 132.506 78.6024 132.506 80.6997C132.506 82.7971 134.209 84.4974 136.31 84.4974Z" fill="#44C2AB"/>
<path d="M147.405 84.4974C149.506 84.4974 151.209 82.7971 151.209 80.6997C151.209 78.6024 149.506 76.9021 147.405 76.9021C145.304 76.9021 143.601 78.6024 143.601 80.6997C143.601 82.7971 145.304 84.4974 147.405 84.4974Z" fill="#44C2AB"/>
<path d="M158.5 84.4974C160.601 84.4974 162.304 82.7971 162.304 80.6997C162.304 78.6024 160.601 76.9021 158.5 76.9021C156.399 76.9021 154.696 78.6024 154.696 80.6997C154.696 82.7971 156.399 84.4974 158.5 84.4974Z" fill="#44C2AB"/>
<path d="M169.595 84.4974C171.696 84.4974 173.399 82.7971 173.399 80.6997C173.399 78.6024 171.696 76.9021 169.595 76.9021C167.494 76.9021 165.791 78.6024 165.791 80.6997C165.791 82.7971 167.494 84.4974 169.595 84.4974Z" fill="#44C2AB"/>
<path d="M81.152 95.5738C83.2529 95.5738 84.956 93.8735 84.956 91.7762C84.956 89.6788 83.2529 87.9785 81.152 87.9785C79.0511 87.9785 77.348 89.6788 77.348 91.7762C77.348 93.8735 79.0511 95.5738 81.152 95.5738Z" fill="#44C2AB"/>
<path d="M92.247 95.5738C94.3479 95.5738 96.051 93.8735 96.051 91.7762C96.051 89.6788 94.3479 87.9785 92.247 87.9785C90.1461 87.9785 88.443 89.6788 88.443 91.7762C88.443 93.8735 90.1461 95.5738 92.247 95.5738Z" fill="#44C2AB"/>
<path d="M136.31 95.5738C138.411 95.5738 140.114 93.8735 140.114 91.7762C140.114 89.6788 138.411 87.9785 136.31 87.9785C134.209 87.9785 132.506 89.6788 132.506 91.7762C132.506 93.8735 134.209 95.5738 136.31 95.5738Z" fill="#44C2AB"/>
<path d="M147.405 95.5738C149.506 95.5738 151.209 93.8735 151.209 91.7762C151.209 89.6788 149.506 87.9785 147.405 87.9785C145.304 87.9785 143.601 89.6788 143.601 91.7762C143.601 93.8735 145.304 95.5738 147.405 95.5738Z" fill="#44C2AB"/>
<path d="M158.5 95.5738C160.601 95.5738 162.304 93.8735 162.304 91.7762C162.304 89.6788 160.601 87.9785 158.5 87.9785C156.399 87.9785 154.696 89.6788 154.696 91.7762C154.696 93.8735 156.399 95.5738 158.5 95.5738Z" fill="#44C2AB"/>
<path d="M169.595 95.5738C171.696 95.5738 173.399 93.8735 173.399 91.7762C173.399 89.6788 171.696 87.9785 169.595 87.9785C167.494 87.9785 165.791 89.6788 165.791 91.7762C165.791 93.8735 167.494 95.5738 169.595 95.5738Z" fill="#44C2AB"/>
<path d="M180.69 95.5738C182.791 95.5738 184.494 93.8735 184.494 91.7762C184.494 89.6788 182.791 87.9785 180.69 87.9785C178.589 87.9785 176.886 89.6788 176.886 91.7762C176.886 93.8735 178.589 95.5738 180.69 95.5738Z" fill="#44C2AB"/>
<path d="M70.0569 106.65C72.1578 106.65 73.8609 104.95 73.8609 102.853C73.8609 100.755 72.1578 99.0549 70.0569 99.0549C67.956 99.0549 66.2529 100.755 66.2529 102.853C66.2529 104.95 67.956 106.65 70.0569 106.65Z" fill="#44C2AB"/>
<path d="M81.152 106.65C83.2529 106.65 84.956 104.95 84.956 102.853C84.956 100.755 83.2529 99.0549 81.152 99.0549C79.0511 99.0549 77.348 100.755 77.348 102.853C77.348 104.95 79.0511 106.65 81.152 106.65Z" fill="#44C2AB"/>
<path d="M92.247 106.65C94.3479 106.65 96.051 104.95 96.051 102.853C96.051 100.755 94.3479 99.0549 92.247 99.0549C90.1461 99.0549 88.443 100.755 88.443 102.853C88.443 104.95 90.1461 106.65 92.247 106.65Z" fill="#44C2AB"/>
<path d="M103.342 106.65C105.443 106.65 107.146 104.95 107.146 102.853C107.146 100.755 105.443 99.0549 103.342 99.0549C101.241 99.0549 99.538 100.755 99.538 102.853C99.538 104.95 101.241 106.65 103.342 106.65Z" fill="#44C2AB"/>
<path d="M114.437 106.65C116.538 106.65 118.241 104.95 118.241 102.853C118.241 100.755 116.538 99.0549 114.437 99.0549C112.336 99.0549 110.633 100.755 110.633 102.853C110.633 104.95 112.336 106.65 114.437 106.65Z" fill="#44C2AB"/>
<path d="M136.31 106.65C138.411 106.65 140.114 104.95 140.114 102.853C140.114 100.755 138.411 99.0549 136.31 99.0549C134.209 99.0549 132.506 100.755 132.506 102.853C132.506 104.95 134.209 106.65 136.31 106.65Z" fill="#44C2AB"/>
<path d="M147.405 106.65C149.506 106.65 151.209 104.95 151.209 102.853C151.209 100.755 149.506 99.0549 147.405 99.0549C145.304 99.0549 143.601 100.755 143.601 102.853C143.601 104.95 145.304 106.65 147.405 106.65Z" fill="#44C2AB"/>
<path d="M158.5 106.65C160.601 106.65 162.304 104.95 162.304 102.853C162.304 100.755 160.601 99.0549 158.5 99.0549C156.399 99.0549 154.696 100.755 154.696 102.853C154.696 104.95 156.399 106.65 158.5 106.65Z" fill="#44C2AB"/>
<path d="M169.595 106.65C171.696 106.65 173.399 104.95 173.399 102.853C173.399 100.755 171.696 99.0549 169.595 99.0549C167.494 99.0549 165.791 100.755 165.791 102.853C165.791 104.95 167.494 106.65 169.595 106.65Z" fill="#44C2AB"/>
<path d="M180.69 106.65C182.791 106.65 184.494 104.95 184.494 102.853C184.494 100.755 182.791 99.0549 180.69 99.0549C178.589 99.0549 176.886 100.755 176.886 102.853C176.886 104.95 178.589 106.65 180.69 106.65Z" fill="#44C2AB"/>
<path d="M191.785 106.65C193.886 106.65 195.589 104.95 195.589 102.853C195.589 100.755 193.886 99.0549 191.785 99.0549C189.684 99.0549 187.981 100.755 187.981 102.853C187.981 104.95 189.684 106.65 191.785 106.65Z" fill="#44C2AB"/>
<path d="M206.337 103.477C206.674 101.407 205.266 99.4562 203.192 99.1201C201.118 98.7841 199.164 100.19 198.828 102.26C198.491 104.33 199.899 106.281 201.973 106.617C204.047 106.953 206.001 105.547 206.337 103.477Z" fill="#44C2AB"/>
<path d="M25.9939 117.727C28.0948 117.727 29.7979 116.026 29.7979 113.929C29.7979 111.832 28.0948 110.131 25.9939 110.131C23.8931 110.131 22.1899 111.832 22.1899 113.929C22.1899 116.026 23.8931 117.727 25.9939 117.727Z" fill="#44C2AB"/>
<path d="M37.089 117.727C39.1899 117.727 40.893 116.026 40.893 113.929C40.893 111.832 39.1899 110.131 37.089 110.131C34.9881 110.131 33.285 111.832 33.285 113.929C33.285 116.026 34.9881 117.727 37.089 117.727Z" fill="#44C2AB"/>
<path d="M48.184 117.727C50.2849 117.727 51.988 116.026 51.988 113.929C51.988 111.832 50.2849 110.131 48.184 110.131C46.0831 110.131 44.38 111.832 44.38 113.929C44.38 116.026 46.0831 117.727 48.184 117.727Z" fill="#44C2AB"/>
<path d="M58.962 117.727C61.0628 117.727 62.766 116.026 62.766 113.929C62.766 111.832 61.0628 110.131 58.962 110.131C56.8611 110.131 55.158 111.832 55.158 113.929C55.158 116.026 56.8611 117.727 58.962 117.727Z" fill="#44C2AB"/>
<path d="M81.152 117.727C83.2529 117.727 84.956 116.026 84.956 113.929C84.956 111.832 83.2529 110.131 81.152 110.131C79.0511 110.131 77.348 111.832 77.348 113.929C77.348 116.026 79.0511 117.727 81.152 117.727Z" fill="#44C2AB"/>
<path d="M92.247 117.727C94.3479 117.727 96.051 116.026 96.051 113.929C96.051 111.832 94.3479 110.131 92.247 110.131C90.1461 110.131 88.443 111.832 88.443 113.929C88.443 116.026 90.1461 117.727 92.247 117.727Z" fill="#44C2AB"/>
<path d="M103.342 117.727C105.443 117.727 107.146 116.026 107.146 113.929C107.146 111.832 105.443 110.131 103.342 110.131C101.241 110.131 99.538 111.832 99.538 113.929C99.538 116.026 101.241 117.727 103.342 117.727Z" fill="#44C2AB"/>
<path d="M114.437 117.727C116.538 117.727 118.241 116.026 118.241 113.929C118.241 111.832 116.538 110.131 114.437 110.131C112.336 110.131 110.633 111.832 110.633 113.929C110.633 116.026 112.336 117.727 114.437 117.727Z" fill="#44C2AB"/>
<path d="M136.31 117.727C138.411 117.727 140.114 116.026 140.114 113.929C140.114 111.832 138.411 110.131 136.31 110.131C134.209 110.131 132.506 111.832 132.506 113.929C132.506 116.026 134.209 117.727 136.31 117.727Z" fill="#44C2AB"/>
<path d="M147.405 117.727C149.506 117.727 151.209 116.026 151.209 113.929C151.209 111.832 149.506 110.131 147.405 110.131C145.304 110.131 143.601 111.832 143.601 113.929C143.601 116.026 145.304 117.727 147.405 117.727Z" fill="#44C2AB"/>
<path d="M158.5 117.727C160.601 117.727 162.304 116.026 162.304 113.929C162.304 111.832 160.601 110.131 158.5 110.131C156.399 110.131 154.696 111.832 154.696 113.929C154.696 116.026 156.399 117.727 158.5 117.727Z" fill="#44C2AB"/>
<path d="M169.595 117.727C171.696 117.727 173.399 116.026 173.399 113.929C173.399 111.832 171.696 110.131 169.595 110.131C167.494 110.131 165.791 111.832 165.791 113.929C165.791 116.026 167.494 117.727 169.595 117.727Z" fill="#44C2AB"/>
<path d="M180.69 117.727C182.791 117.727 184.494 116.026 184.494 113.929C184.494 111.832 182.791 110.131 180.69 110.131C178.589 110.131 176.886 111.832 176.886 113.929C176.886 116.026 178.589 117.727 180.69 117.727Z" fill="#44C2AB"/>
<path d="M191.785 117.727C193.886 117.727 195.589 116.026 195.589 113.929C195.589 111.832 193.886 110.131 191.785 110.131C189.684 110.131 187.981 111.832 187.981 113.929C187.981 116.026 189.684 117.727 191.785 117.727Z" fill="#44C2AB"/>
<path d="M206.331 114.556C206.668 112.486 205.26 110.535 203.186 110.199C201.112 109.863 199.158 111.269 198.822 113.339C198.485 115.409 199.893 117.36 201.967 117.696C204.041 118.032 205.995 116.626 206.331 114.556Z" fill="#44C2AB"/>
<path d="M213.658 117.727C215.759 117.727 217.462 116.026 217.462 113.929C217.462 111.832 215.759 110.131 213.658 110.131C211.557 110.131 209.854 111.832 209.854 113.929C209.854 116.026 211.557 117.727 213.658 117.727Z" fill="#44C2AB"/>
<path d="M25.9939 128.803C28.0948 128.803 29.7979 127.103 29.7979 125.005C29.7979 122.908 28.0948 121.208 25.9939 121.208C23.8931 121.208 22.1899 122.908 22.1899 125.005C22.1899 127.103 23.8931 128.803 25.9939 128.803Z" fill="#44C2AB"/>
<path d="M37.089 128.803C39.1899 128.803 40.893 127.103 40.893 125.005C40.893 122.908 39.1899 121.208 37.089 121.208C34.9881 121.208 33.285 122.908 33.285 125.005C33.285 127.103 34.9881 128.803 37.089 128.803Z" fill="#44C2AB"/>
<path d="M48.184 128.803C50.2849 128.803 51.988 127.103 51.988 125.005C51.988 122.908 50.2849 121.208 48.184 121.208C46.0831 121.208 44.38 122.908 44.38 125.005C44.38 127.103 46.0831 128.803 48.184 128.803Z" fill="#44C2AB"/>
<path d="M58.962 128.803C61.0628 128.803 62.766 127.103 62.766 125.005C62.766 122.908 61.0628 121.208 58.962 121.208C56.8611 121.208 55.158 122.908 55.158 125.005C55.158 127.103 56.8611 128.803 58.962 128.803Z" fill="#44C2AB"/>
<path d="M70.0569 128.803C72.1578 128.803 73.8609 127.103 73.8609 125.005C73.8609 122.908 72.1578 121.208 70.0569 121.208C67.956 121.208 66.2529 122.908 66.2529 125.005C66.2529 127.103 67.956 128.803 70.0569 128.803Z" fill="#44C2AB"/>
<path d="M81.152 128.803C83.2529 128.803 84.956 127.103 84.956 125.005C84.956 122.908 83.2529 121.208 81.152 121.208C79.0511 121.208 77.348 122.908 77.348 125.005C77.348 127.103 79.0511 128.803 81.152 128.803Z" fill="#44C2AB"/>
<path d="M92.247 128.803C94.3479 128.803 96.051 127.103 96.051 125.005C96.051 122.908 94.3479 121.208 92.247 121.208C90.1461 121.208 88.443 122.908 88.443 125.005C88.443 127.103 90.1461 128.803 92.247 128.803Z" fill="#44C2AB"/>
<path d="M103.342 128.803C105.443 128.803 107.146 127.103 107.146 125.005C107.146 122.908 105.443 121.208 103.342 121.208C101.241 121.208 99.538 122.908 99.538 125.005C99.538 127.103 101.241 128.803 103.342 128.803Z" fill="#44C2AB"/>
<path d="M114.437 128.803C116.538 128.803 118.241 127.103 118.241 125.005C118.241 122.908 116.538 121.208 114.437 121.208C112.336 121.208 110.633 122.908 110.633 125.005C110.633 127.103 112.336 128.803 114.437 128.803Z" fill="#44C2AB"/>
<path d="M125.215 128.803C127.316 128.803 129.019 127.103 129.019 125.005C129.019 122.908 127.316 121.208 125.215 121.208C123.114 121.208 121.411 122.908 121.411 125.005C121.411 127.103 123.114 128.803 125.215 128.803Z" fill="#44C2AB"/>
<path d="M147.405 128.803C149.506 128.803 151.209 127.103 151.209 125.005C151.209 122.908 149.506 121.208 147.405 121.208C145.304 121.208 143.601 122.908 143.601 125.005C143.601 127.103 145.304 128.803 147.405 128.803Z" fill="#44C2AB"/>
<path d="M169.595 128.803C171.696 128.803 173.399 127.103 173.399 125.005C173.399 122.908 171.696 121.208 169.595 121.208C167.494 121.208 165.791 122.908 165.791 125.005C165.791 127.103 167.494 128.803 169.595 128.803Z" fill="#44C2AB"/>
<path d="M180.69 128.803C182.791 128.803 184.494 127.103 184.494 125.005C184.494 122.908 182.791 121.208 180.69 121.208C178.589 121.208 176.886 122.908 176.886 125.005C176.886 127.103 178.589 128.803 180.69 128.803Z" fill="#44C2AB"/>
<path d="M191.785 128.803C193.886 128.803 195.589 127.103 195.589 125.005C195.589 122.908 193.886 121.208 191.785 121.208C189.684 121.208 187.981 122.908 187.981 125.005C187.981 127.103 189.684 128.803 191.785 128.803Z" fill="#44C2AB"/>
<path d="M206.336 125.624C206.672 123.554 205.264 121.603 203.19 121.267C201.117 120.931 199.163 122.337 198.826 124.407C198.489 126.478 199.898 128.428 201.971 128.764C204.045 129.101 205.999 127.695 206.336 125.624Z" fill="#44C2AB"/>
<path d="M213.658 128.803C215.759 128.803 217.462 127.103 217.462 125.005C217.462 122.908 215.759 121.208 213.658 121.208C211.557 121.208 209.854 122.908 209.854 125.005C209.854 127.103 211.557 128.803 213.658 128.803Z" fill="#44C2AB"/>
<path d="M224.753 128.803C226.854 128.803 228.557 127.103 228.557 125.005C228.557 122.908 226.854 121.208 224.753 121.208C222.652 121.208 220.949 122.908 220.949 125.005C220.949 127.103 222.652 128.803 224.753 128.803Z" fill="#44C2AB"/>
<path d="M14.899 139.879C16.9999 139.879 18.703 138.179 18.703 136.082C18.703 133.984 16.9999 132.284 14.899 132.284C12.7981 132.284 11.095 133.984 11.095 136.082C11.095 138.179 12.7981 139.879 14.899 139.879Z" fill="#44C2AB"/>
<path d="M25.9939 139.879C28.0948 139.879 29.7979 138.179 29.7979 136.082C29.7979 133.984 28.0948 132.284 25.9939 132.284C23.8931 132.284 22.1899 133.984 22.1899 136.082C22.1899 138.179 23.8931 139.879 25.9939 139.879Z" fill="#44C2AB"/>
<path d="M37.089 139.879C39.1899 139.879 40.893 138.179 40.893 136.082C40.893 133.984 39.1899 132.284 37.089 132.284C34.9881 132.284 33.285 133.984 33.285 136.082C33.285 138.179 34.9881 139.879 37.089 139.879Z" fill="#44C2AB"/>
<path d="M48.184 139.879C50.2849 139.879 51.988 138.179 51.988 136.082C51.988 133.984 50.2849 132.284 48.184 132.284C46.0831 132.284 44.38 133.984 44.38 136.082C44.38 138.179 46.0831 139.879 48.184 139.879Z" fill="#44C2AB"/>
<path d="M58.962 139.879C61.0628 139.879 62.766 138.179 62.766 136.082C62.766 133.984 61.0628 132.284 58.962 132.284C56.8611 132.284 55.158 133.984 55.158 136.082C55.158 138.179 56.8611 139.879 58.962 139.879Z" fill="#44C2AB"/>
<path d="M70.0569 139.879C72.1578 139.879 73.8609 138.179 73.8609 136.082C73.8609 133.984 72.1578 132.284 70.0569 132.284C67.956 132.284 66.2529 133.984 66.2529 136.082C66.2529 138.179 67.956 139.879 70.0569 139.879Z" fill="#44C2AB"/>
<path d="M81.152 139.879C83.2529 139.879 84.956 138.179 84.956 136.082C84.956 133.984 83.2529 132.284 81.152 132.284C79.0511 132.284 77.348 133.984 77.348 136.082C77.348 138.179 79.0511 139.879 81.152 139.879Z" fill="#44C2AB"/>
<path d="M92.247 139.879C94.3479 139.879 96.051 138.179 96.051 136.082C96.051 133.984 94.3479 132.284 92.247 132.284C90.1461 132.284 88.443 133.984 88.443 136.082C88.443 138.179 90.1461 139.879 92.247 139.879Z" fill="#44C2AB"/>
<path d="M103.342 139.879C105.443 139.879 107.146 138.179 107.146 136.082C107.146 133.984 105.443 132.284 103.342 132.284C101.241 132.284 99.538 133.984 99.538 136.082C99.538 138.179 101.241 139.879 103.342 139.879Z" fill="#44C2AB"/>
<path d="M114.437 139.879C116.538 139.879 118.241 138.179 118.241 136.082C118.241 133.984 116.538 132.284 114.437 132.284C112.336 132.284 110.633 133.984 110.633 136.082C110.633 138.179 112.336 139.879 114.437 139.879Z" fill="#44C2AB"/>
<path d="M136.31 139.879C138.411 139.879 140.114 138.179 140.114 136.082C140.114 133.984 138.411 132.284 136.31 132.284C134.209 132.284 132.506 133.984 132.506 136.082C132.506 138.179 134.209 139.879 136.31 139.879Z" fill="#44C2AB"/>
<path d="M147.405 139.879C149.506 139.879 151.209 138.179 151.209 136.082C151.209 133.984 149.506 132.284 147.405 132.284C145.304 132.284 143.601 133.984 143.601 136.082C143.601 138.179 145.304 139.879 147.405 139.879Z" fill="#44C2AB"/>
<path d="M158.5 139.879C160.601 139.879 162.304 138.179 162.304 136.082C162.304 133.984 160.601 132.284 158.5 132.284C156.399 132.284 154.696 133.984 154.696 136.082C154.696 138.179 156.399 139.879 158.5 139.879Z" fill="#44C2AB"/>
<path d="M169.595 139.879C171.696 139.879 173.399 138.179 173.399 136.082C173.399 133.984 171.696 132.284 169.595 132.284C167.494 132.284 165.791 133.984 165.791 136.082C165.791 138.179 167.494 139.879 169.595 139.879Z" fill="#44C2AB"/>
<path d="M180.69 139.879C182.791 139.879 184.494 138.179 184.494 136.082C184.494 133.984 182.791 132.284 180.69 132.284C178.589 132.284 176.886 133.984 176.886 136.082C176.886 138.179 178.589 139.879 180.69 139.879Z" fill="#44C2AB"/>
<path d="M213.658 139.879C215.759 139.879 217.462 138.179 217.462 136.082C217.462 133.984 215.759 132.284 213.658 132.284C211.557 132.284 209.854 133.984 209.854 136.082C209.854 138.179 211.557 139.879 213.658 139.879Z" fill="#44C2AB"/>
<path d="M224.753 139.879C226.854 139.879 228.557 138.179 228.557 136.082C228.557 133.984 226.854 132.284 224.753 132.284C222.652 132.284 220.949 133.984 220.949 136.082C220.949 138.179 222.652 139.879 224.753 139.879Z" fill="#44C2AB"/>
<path d="M235.848 139.879C237.949 139.879 239.652 138.179 239.652 136.082C239.652 133.984 237.949 132.284 235.848 132.284C233.747 132.284 232.044 133.984 232.044 136.082C232.044 138.179 233.747 139.879 235.848 139.879Z" fill="#44C2AB"/>
<path d="M14.899 150.639C16.9999 150.639 18.703 148.939 18.703 146.842C18.703 144.744 16.9999 143.044 14.899 143.044C12.7981 143.044 11.095 144.744 11.095 146.842C11.095 148.939 12.7981 150.639 14.899 150.639Z" fill="#44C2AB"/>
<path d="M25.9939 150.639C28.0948 150.639 29.7979 148.939 29.7979 146.842C29.7979 144.744 28.0948 143.044 25.9939 143.044C23.8931 143.044 22.1899 144.744 22.1899 146.842C22.1899 148.939 23.8931 150.639 25.9939 150.639Z" fill="#44C2AB"/>
<path d="M37.089 150.639C39.1899 150.639 40.893 148.939 40.893 146.842C40.893 144.744 39.1899 143.044 37.089 143.044C34.9881 143.044 33.285 144.744 33.285 146.842C33.285 148.939 34.9881 150.639 37.089 150.639Z" fill="#44C2AB"/>
<path d="M48.184 150.639C50.2849 150.639 51.988 148.939 51.988 146.842C51.988 144.744 50.2849 143.044 48.184 143.044C46.0831 143.044 44.38 144.744 44.38 146.842C44.38 148.939 46.0831 150.639 48.184 150.639Z" fill="#44C2AB"/>
<path d="M58.962 150.639C61.0628 150.639 62.766 148.939 62.766 146.842C62.766 144.744 61.0628 143.044 58.962 143.044C56.8611 143.044 55.158 144.744 55.158 146.842C55.158 148.939 56.8611 150.639 58.962 150.639Z" fill="#44C2AB"/>
<path d="M70.0569 150.639C72.1578 150.639 73.8609 148.939 73.8609 146.842C73.8609 144.744 72.1578 143.044 70.0569 143.044C67.956 143.044 66.2529 144.744 66.2529 146.842C66.2529 148.939 67.956 150.639 70.0569 150.639Z" fill="#44C2AB"/>
<path d="M81.152 150.639C83.2529 150.639 84.956 148.939 84.956 146.842C84.956 144.744 83.2529 143.044 81.152 143.044C79.0511 143.044 77.348 144.744 77.348 146.842C77.348 148.939 79.0511 150.639 81.152 150.639Z" fill="#44C2AB"/>
<path d="M92.247 150.639C94.3479 150.639 96.051 148.939 96.051 146.842C96.051 144.744 94.3479 143.044 92.247 143.044C90.1461 143.044 88.443 144.744 88.443 146.842C88.443 148.939 90.1461 150.639 92.247 150.639Z" fill="#44C2AB"/>
<path d="M103.342 150.639C105.443 150.639 107.146 148.939 107.146 146.842C107.146 144.744 105.443 143.044 103.342 143.044C101.241 143.044 99.538 144.744 99.538 146.842C99.538 148.939 101.241 150.639 103.342 150.639Z" fill="#44C2AB"/>
<path d="M114.437 150.639C116.538 150.639 118.241 148.939 118.241 146.842C118.241 144.744 116.538 143.044 114.437 143.044C112.336 143.044 110.633 144.744 110.633 146.842C110.633 148.939 112.336 150.639 114.437 150.639Z" fill="#44C2AB"/>
<path d="M125.215 150.639C127.316 150.639 129.019 148.939 129.019 146.842C129.019 144.744 127.316 143.044 125.215 143.044C123.114 143.044 121.411 144.744 121.411 146.842C121.411 148.939 123.114 150.639 125.215 150.639Z" fill="#44C2AB"/>
<path d="M136.31 150.639C138.411 150.639 140.114 148.939 140.114 146.842C140.114 144.744 138.411 143.044 136.31 143.044C134.209 143.044 132.506 144.744 132.506 146.842C132.506 148.939 134.209 150.639 136.31 150.639Z" fill="#44C2AB"/>
<path d="M147.405 150.639C149.506 150.639 151.209 148.939 151.209 146.842C151.209 144.744 149.506 143.044 147.405 143.044C145.304 143.044 143.601 144.744 143.601 146.842C143.601 148.939 145.304 150.639 147.405 150.639Z" fill="#44C2AB"/>
<path d="M158.5 150.639C160.601 150.639 162.304 148.939 162.304 146.842C162.304 144.744 160.601 143.044 158.5 143.044C156.399 143.044 154.696 144.744 154.696 146.842C154.696 148.939 156.399 150.639 158.5 150.639Z" fill="#44C2AB"/>
<path d="M169.595 150.639C171.696 150.639 173.399 148.939 173.399 146.842C173.399 144.744 171.696 143.044 169.595 143.044C167.494 143.044 165.791 144.744 165.791 146.842C165.791 148.939 167.494 150.639 169.595 150.639Z" fill="#44C2AB"/>
<path d="M180.69 150.639C182.791 150.639 184.494 148.939 184.494 146.842C184.494 144.744 182.791 143.044 180.69 143.044C178.589 143.044 176.886 144.744 176.886 146.842C176.886 148.939 178.589 150.639 180.69 150.639Z" fill="#44C2AB"/>
<path d="M213.658 150.639C215.759 150.639 217.462 148.939 217.462 146.842C217.462 144.744 215.759 143.044 213.658 143.044C211.557 143.044 209.854 144.744 209.854 146.842C209.854 148.939 211.557 150.639 213.658 150.639Z" fill="#44C2AB"/>
<path d="M224.753 150.639C226.854 150.639 228.557 148.939 228.557 146.842C228.557 144.744 226.854 143.044 224.753 143.044C222.652 143.044 220.949 144.744 220.949 146.842C220.949 148.939 222.652 150.639 224.753 150.639Z" fill="#44C2AB"/>
<path d="M14.899 161.716C16.9999 161.716 18.703 160.016 18.703 157.918C18.703 155.821 16.9999 154.121 14.899 154.121C12.7981 154.121 11.095 155.821 11.095 157.918C11.095 160.016 12.7981 161.716 14.899 161.716Z" fill="#44C2AB"/>
<path d="M25.9939 161.716C28.0948 161.716 29.7979 160.016 29.7979 157.918C29.7979 155.821 28.0948 154.121 25.9939 154.121C23.8931 154.121 22.1899 155.821 22.1899 157.918C22.1899 160.016 23.8931 161.716 25.9939 161.716Z" fill="#44C2AB"/>
<path d="M37.089 161.716C39.1899 161.716 40.893 160.016 40.893 157.918C40.893 155.821 39.1899 154.121 37.089 154.121C34.9881 154.121 33.285 155.821 33.285 157.918C33.285 160.016 34.9881 161.716 37.089 161.716Z" fill="#44C2AB"/>
<path d="M48.184 161.716C50.2849 161.716 51.988 160.016 51.988 157.918C51.988 155.821 50.2849 154.121 48.184 154.121C46.0831 154.121 44.38 155.821 44.38 157.918C44.38 160.016 46.0831 161.716 48.184 161.716Z" fill="#44C2AB"/>
<path d="M58.962 161.716C61.0628 161.716 62.766 160.016 62.766 157.918C62.766 155.821 61.0628 154.121 58.962 154.121C56.8611 154.121 55.158 155.821 55.158 157.918C55.158 160.016 56.8611 161.716 58.962 161.716Z" fill="#44C2AB"/>
<path d="M70.0569 161.716C72.1578 161.716 73.8609 160.016 73.8609 157.918C73.8609 155.821 72.1578 154.121 70.0569 154.121C67.956 154.121 66.2529 155.821 66.2529 157.918C66.2529 160.016 67.956 161.716 70.0569 161.716Z" fill="#44C2AB"/>
<path d="M81.152 161.716C83.2529 161.716 84.956 160.016 84.956 157.918C84.956 155.821 83.2529 154.121 81.152 154.121C79.0511 154.121 77.348 155.821 77.348 157.918C77.348 160.016 79.0511 161.716 81.152 161.716Z" fill="#44C2AB"/>
<path d="M92.247 161.716C94.3479 161.716 96.051 160.016 96.051 157.918C96.051 155.821 94.3479 154.121 92.247 154.121C90.1461 154.121 88.443 155.821 88.443 157.918C88.443 160.016 90.1461 161.716 92.247 161.716Z" fill="#44C2AB"/>
<path d="M103.342 161.716C105.443 161.716 107.146 160.016 107.146 157.918C107.146 155.821 105.443 154.121 103.342 154.121C101.241 154.121 99.538 155.821 99.538 157.918C99.538 160.016 101.241 161.716 103.342 161.716Z" fill="#44C2AB"/>
<path d="M114.437 161.716C116.538 161.716 118.241 160.016 118.241 157.918C118.241 155.821 116.538 154.121 114.437 154.121C112.336 154.121 110.633 155.821 110.633 157.918C110.633 160.016 112.336 161.716 114.437 161.716Z" fill="#44C2AB"/>
<path d="M125.215 161.716C127.316 161.716 129.019 160.016 129.019 157.918C129.019 155.821 127.316 154.121 125.215 154.121C123.114 154.121 121.411 155.821 121.411 157.918C121.411 160.016 123.114 161.716 125.215 161.716Z" fill="#44C2AB"/>
<path d="M136.31 161.716C138.411 161.716 140.114 160.016 140.114 157.918C140.114 155.821 138.411 154.121 136.31 154.121C134.209 154.121 132.506 155.821 132.506 157.918C132.506 160.016 134.209 161.716 136.31 161.716Z" fill="#44C2AB"/>
<path d="M147.405 161.716C149.506 161.716 151.209 160.016 151.209 157.918C151.209 155.821 149.506 154.121 147.405 154.121C145.304 154.121 143.601 155.821 143.601 157.918C143.601 160.016 145.304 161.716 147.405 161.716Z" fill="#44C2AB"/>
<path d="M158.5 161.716C160.601 161.716 162.304 160.016 162.304 157.918C162.304 155.821 160.601 154.121 158.5 154.121C156.399 154.121 154.696 155.821 154.696 157.918C154.696 160.016 156.399 161.716 158.5 161.716Z" fill="#44C2AB"/>
<path d="M169.595 161.716C171.696 161.716 173.399 160.016 173.399 157.918C173.399 155.821 171.696 154.121 169.595 154.121C167.494 154.121 165.791 155.821 165.791 157.918C165.791 160.016 167.494 161.716 169.595 161.716Z" fill="#44C2AB"/>
<path d="M180.69 161.716C182.791 161.716 184.494 160.016 184.494 157.918C184.494 155.821 182.791 154.121 180.69 154.121C178.589 154.121 176.886 155.821 176.886 157.918C176.886 160.016 178.589 161.716 180.69 161.716Z" fill="#44C2AB"/>
<path d="M206.333 158.547C206.669 156.476 205.261 154.526 203.187 154.19C201.113 153.854 199.159 155.26 198.823 157.33C198.486 159.4 199.894 161.351 201.968 161.687C204.042 162.023 205.996 160.617 206.333 158.547Z" fill="#44C2AB"/>
<path d="M213.658 161.716C215.759 161.716 217.462 160.016 217.462 157.918C217.462 155.821 215.759 154.121 213.658 154.121C211.557 154.121 209.854 155.821 209.854 157.918C209.854 160.016 211.557 161.716 213.658 161.716Z" fill="#44C2AB"/>
<path d="M224.753 161.716C226.854 161.716 228.557 160.016 228.557 157.918C228.557 155.821 226.854 154.121 224.753 154.121C222.652 154.121 220.949 155.821 220.949 157.918C220.949 160.016 222.652 161.716 224.753 161.716Z" fill="#44C2AB"/>
<path d="M235.848 161.716C237.949 161.716 239.652 160.016 239.652 157.918C239.652 155.821 237.949 154.121 235.848 154.121C233.747 154.121 232.044 155.821 232.044 157.918C232.044 160.016 233.747 161.716 235.848 161.716Z" fill="#44C2AB"/>
<path d="M3.804 172.792C5.90489 172.792 7.608 171.092 7.608 168.995C7.608 166.897 5.90489 165.197 3.804 165.197C1.70311 165.197 0 166.897 0 168.995C0 171.092 1.70311 172.792 3.804 172.792Z" fill="#44C2AB"/>
<path d="M14.899 172.792C16.9999 172.792 18.703 171.092 18.703 168.995C18.703 166.897 16.9999 165.197 14.899 165.197C12.7981 165.197 11.095 166.897 11.095 168.995C11.095 171.092 12.7981 172.792 14.899 172.792Z" fill="#44C2AB"/>
<path d="M25.9939 172.792C28.0948 172.792 29.7979 171.092 29.7979 168.995C29.7979 166.897 28.0948 165.197 25.9939 165.197C23.8931 165.197 22.1899 166.897 22.1899 168.995C22.1899 171.092 23.8931 172.792 25.9939 172.792Z" fill="#44C2AB"/>
<path d="M37.089 172.792C39.1899 172.792 40.893 171.092 40.893 168.995C40.893 166.897 39.1899 165.197 37.089 165.197C34.9881 165.197 33.285 166.897 33.285 168.995C33.285 171.092 34.9881 172.792 37.089 172.792Z" fill="#44C2AB"/>
<path d="M48.184 172.792C50.2849 172.792 51.988 171.092 51.988 168.995C51.988 166.897 50.2849 165.197 48.184 165.197C46.0831 165.197 44.38 166.897 44.38 168.995C44.38 171.092 46.0831 172.792 48.184 172.792Z" fill="#44C2AB"/>
<path d="M58.962 172.792C61.0628 172.792 62.766 171.092 62.766 168.995C62.766 166.897 61.0628 165.197 58.962 165.197C56.8611 165.197 55.158 166.897 55.158 168.995C55.158 171.092 56.8611 172.792 58.962 172.792Z" fill="#44C2AB"/>
<path d="M70.0569 172.792C72.1578 172.792 73.8609 171.092 73.8609 168.995C73.8609 166.897 72.1578 165.197 70.0569 165.197C67.956 165.197 66.2529 166.897 66.2529 168.995C66.2529 171.092 67.956 172.792 70.0569 172.792Z" fill="#44C2AB"/>
<path d="M81.152 172.792C83.2529 172.792 84.956 171.092 84.956 168.995C84.956 166.897 83.2529 165.197 81.152 165.197C79.0511 165.197 77.348 166.897 77.348 168.995C77.348 171.092 79.0511 172.792 81.152 172.792Z" fill="#44C2AB"/>
<path d="M92.247 172.792C94.3479 172.792 96.051 171.092 96.051 168.995C96.051 166.897 94.3479 165.197 92.247 165.197C90.1461 165.197 88.443 166.897 88.443 168.995C88.443 171.092 90.1461 172.792 92.247 172.792Z" fill="#44C2AB"/>
<path d="M103.342 172.792C105.443 172.792 107.146 171.092 107.146 168.995C107.146 166.897 105.443 165.197 103.342 165.197C101.241 165.197 99.538 166.897 99.538 168.995C99.538 171.092 101.241 172.792 103.342 172.792Z" fill="#44C2AB"/>
<path d="M114.437 172.792C116.538 172.792 118.241 171.092 118.241 168.995C118.241 166.897 116.538 165.197 114.437 165.197C112.336 165.197 110.633 166.897 110.633 168.995C110.633 171.092 112.336 172.792 114.437 172.792Z" fill="#44C2AB"/>
<path d="M125.215 172.792C127.316 172.792 129.019 171.092 129.019 168.995C129.019 166.897 127.316 165.197 125.215 165.197C123.114 165.197 121.411 166.897 121.411 168.995C121.411 171.092 123.114 172.792 125.215 172.792Z" fill="#44C2AB"/>
<path d="M136.31 172.792C138.411 172.792 140.114 171.092 140.114 168.995C140.114 166.897 138.411 165.197 136.31 165.197C134.209 165.197 132.506 166.897 132.506 168.995C132.506 171.092 134.209 172.792 136.31 172.792Z" fill="#44C2AB"/>
<path d="M147.405 172.792C149.506 172.792 151.209 171.092 151.209 168.995C151.209 166.897 149.506 165.197 147.405 165.197C145.304 165.197 143.601 166.897 143.601 168.995C143.601 171.092 145.304 172.792 147.405 172.792Z" fill="#44C2AB"/>
<path d="M158.5 172.792C160.601 172.792 162.304 171.092 162.304 168.995C162.304 166.897 160.601 165.197 158.5 165.197C156.399 165.197 154.696 166.897 154.696 168.995C154.696 171.092 156.399 172.792 158.5 172.792Z" fill="#44C2AB"/>
<path d="M169.595 172.792C171.696 172.792 173.399 171.092 173.399 168.995C173.399 166.897 171.696 165.197 169.595 165.197C167.494 165.197 165.791 166.897 165.791 168.995C165.791 171.092 167.494 172.792 169.595 172.792Z" fill="#44C2AB"/>
<path d="M180.69 172.792C182.791 172.792 184.494 171.092 184.494 168.995C184.494 166.897 182.791 165.197 180.69 165.197C178.589 165.197 176.886 166.897 176.886 168.995C176.886 171.092 178.589 172.792 180.69 172.792Z" fill="#44C2AB"/>
<path d="M191.785 172.792C193.886 172.792 195.589 171.092 195.589 168.995C195.589 166.897 193.886 165.197 191.785 165.197C189.684 165.197 187.981 166.897 187.981 168.995C187.981 171.092 189.684 172.792 191.785 172.792Z" fill="#44C2AB"/>
<path d="M14.899 183.869C16.9999 183.869 18.703 182.168 18.703 180.071C18.703 177.974 16.9999 176.273 14.899 176.273C12.7981 176.273 11.095 177.974 11.095 180.071C11.095 182.168 12.7981 183.869 14.899 183.869Z" fill="#44C2AB"/>
<path d="M25.9939 183.869C28.0948 183.869 29.7979 182.168 29.7979 180.071C29.7979 177.974 28.0948 176.273 25.9939 176.273C23.8931 176.273 22.1899 177.974 22.1899 180.071C22.1899 182.168 23.8931 183.869 25.9939 183.869Z" fill="#44C2AB"/>
<path d="M37.089 183.869C39.1899 183.869 40.893 182.168 40.893 180.071C40.893 177.974 39.1899 176.273 37.089 176.273C34.9881 176.273 33.285 177.974 33.285 180.071C33.285 182.168 34.9881 183.869 37.089 183.869Z" fill="#44C2AB"/>
<path d="M48.184 183.869C50.2849 183.869 51.988 182.168 51.988 180.071C51.988 177.974 50.2849 176.273 48.184 176.273C46.0831 176.273 44.38 177.974 44.38 180.071C44.38 182.168 46.0831 183.869 48.184 183.869Z" fill="#44C2AB"/>
<path d="M58.962 183.869C61.0628 183.869 62.766 182.168 62.766 180.071C62.766 177.974 61.0628 176.273 58.962 176.273C56.8611 176.273 55.158 177.974 55.158 180.071C55.158 182.168 56.8611 183.869 58.962 183.869Z" fill="#44C2AB"/>
<path d="M70.0569 183.869C72.1578 183.869 73.8609 182.168 73.8609 180.071C73.8609 177.974 72.1578 176.273 70.0569 176.273C67.956 176.273 66.2529 177.974 66.2529 180.071C66.2529 182.168 67.956 183.869 70.0569 183.869Z" fill="#44C2AB"/>
<path d="M81.152 183.869C83.2529 183.869 84.956 182.168 84.956 180.071C84.956 177.974 83.2529 176.273 81.152 176.273C79.0511 176.273 77.348 177.974 77.348 180.071C77.348 182.168 79.0511 183.869 81.152 183.869Z" fill="#44C2AB"/>
<path d="M92.247 183.869C94.3479 183.869 96.051 182.168 96.051 180.071C96.051 177.974 94.3479 176.273 92.247 176.273C90.1461 176.273 88.443 177.974 88.443 180.071C88.443 182.168 90.1461 183.869 92.247 183.869Z" fill="#44C2AB"/>
<path d="M103.342 183.869C105.443 183.869 107.146 182.168 107.146 180.071C107.146 177.974 105.443 176.273 103.342 176.273C101.241 176.273 99.538 177.974 99.538 180.071C99.538 182.168 101.241 183.869 103.342 183.869Z" fill="#44C2AB"/>
<path d="M114.437 183.869C116.538 183.869 118.241 182.168 118.241 180.071C118.241 177.974 116.538 176.273 114.437 176.273C112.336 176.273 110.633 177.974 110.633 180.071C110.633 182.168 112.336 183.869 114.437 183.869Z" fill="#44C2AB"/>
<path d="M125.215 183.869C127.316 183.869 129.019 182.168 129.019 180.071C129.019 177.974 127.316 176.273 125.215 176.273C123.114 176.273 121.411 177.974 121.411 180.071C121.411 182.168 123.114 183.869 125.215 183.869Z" fill="#44C2AB"/>
<path d="M136.31 183.869C138.411 183.869 140.114 182.168 140.114 180.071C140.114 177.974 138.411 176.273 136.31 176.273C134.209 176.273 132.506 177.974 132.506 180.071C132.506 182.168 134.209 183.869 136.31 183.869Z" fill="#44C2AB"/>
<path d="M147.405 183.869C149.506 183.869 151.209 182.168 151.209 180.071C151.209 177.974 149.506 176.273 147.405 176.273C145.304 176.273 143.601 177.974 143.601 180.071C143.601 182.168 145.304 183.869 147.405 183.869Z" fill="#44C2AB"/>
<path d="M158.5 183.869C160.601 183.869 162.304 182.168 162.304 180.071C162.304 177.974 160.601 176.273 158.5 176.273C156.399 176.273 154.696 177.974 154.696 180.071C154.696 182.168 156.399 183.869 158.5 183.869Z" fill="#44C2AB"/>
<path d="M206.331 180.694C206.668 178.624 205.26 176.673 203.186 176.337C201.112 176.001 199.158 177.407 198.821 179.477C198.485 181.547 199.893 183.498 201.967 183.834C204.041 184.17 205.995 182.764 206.331 180.694Z" fill="#44C2AB"/>
<path d="M213.658 183.869C215.759 183.869 217.462 182.168 217.462 180.071C217.462 177.974 215.759 176.273 213.658 176.273C211.557 176.273 209.854 177.974 209.854 180.071C209.854 182.168 211.557 183.869 213.658 183.869Z" fill="#44C2AB"/>
<path d="M224.753 183.869C226.854 183.869 228.557 182.168 228.557 180.071C228.557 177.974 226.854 176.273 224.753 176.273C222.652 176.273 220.949 177.974 220.949 180.071C220.949 182.168 222.652 183.869 224.753 183.869Z" fill="#44C2AB"/>
<path d="M246.943 183.869C249.044 183.869 250.747 182.168 250.747 180.071C250.747 177.974 249.044 176.273 246.943 176.273C244.842 176.273 243.139 177.974 243.139 180.071C243.139 182.168 244.842 183.869 246.943 183.869Z" fill="#44C2AB"/>
<path d="M25.9939 194.945C28.0948 194.945 29.7979 193.245 29.7979 191.147C29.7979 189.05 28.0948 187.35 25.9939 187.35C23.8931 187.35 22.1899 189.05 22.1899 191.147C22.1899 193.245 23.8931 194.945 25.9939 194.945Z" fill="#44C2AB"/>
<path d="M37.089 194.945C39.1899 194.945 40.893 193.245 40.893 191.147C40.893 189.05 39.1899 187.35 37.089 187.35C34.9881 187.35 33.285 189.05 33.285 191.147C33.285 193.245 34.9881 194.945 37.089 194.945Z" fill="#44C2AB"/>
<path d="M48.184 194.945C50.2849 194.945 51.988 193.245 51.988 191.147C51.988 189.05 50.2849 187.35 48.184 187.35C46.0831 187.35 44.38 189.05 44.38 191.147C44.38 193.245 46.0831 194.945 48.184 194.945Z" fill="#44C2AB"/>
<path d="M58.962 194.945C61.0628 194.945 62.766 193.245 62.766 191.147C62.766 189.05 61.0628 187.35 58.962 187.35C56.8611 187.35 55.158 189.05 55.158 191.147C55.158 193.245 56.8611 194.945 58.962 194.945Z" fill="#44C2AB"/>
<path d="M70.0569 194.945C72.1578 194.945 73.8609 193.245 73.8609 191.147C73.8609 189.05 72.1578 187.35 70.0569 187.35C67.956 187.35 66.2529 189.05 66.2529 191.147C66.2529 193.245 67.956 194.945 70.0569 194.945Z" fill="#44C2AB"/>
<path d="M81.152 194.945C83.2529 194.945 84.956 193.245 84.956 191.147C84.956 189.05 83.2529 187.35 81.152 187.35C79.0511 187.35 77.348 189.05 77.348 191.147C77.348 193.245 79.0511 194.945 81.152 194.945Z" fill="#44C2AB"/>
<path d="M92.247 194.945C94.3479 194.945 96.051 193.245 96.051 191.147C96.051 189.05 94.3479 187.35 92.247 187.35C90.1461 187.35 88.443 189.05 88.443 191.147C88.443 193.245 90.1461 194.945 92.247 194.945Z" fill="#44C2AB"/>
<path d="M103.342 194.945C105.443 194.945 107.146 193.245 107.146 191.147C107.146 189.05 105.443 187.35 103.342 187.35C101.241 187.35 99.538 189.05 99.538 191.147C99.538 193.245 101.241 194.945 103.342 194.945Z" fill="#44C2AB"/>
<path d="M114.437 194.945C116.538 194.945 118.241 193.245 118.241 191.147C118.241 189.05 116.538 187.35 114.437 187.35C112.336 187.35 110.633 189.05 110.633 191.147C110.633 193.245 112.336 194.945 114.437 194.945Z" fill="#44C2AB"/>
<path d="M125.215 194.945C127.316 194.945 129.019 193.245 129.019 191.147C129.019 189.05 127.316 187.35 125.215 187.35C123.114 187.35 121.411 189.05 121.411 191.147C121.411 193.245 123.114 194.945 125.215 194.945Z" fill="#44C2AB"/>
<path d="M136.31 194.945C138.411 194.945 140.114 193.245 140.114 191.147C140.114 189.05 138.411 187.35 136.31 187.35C134.209 187.35 132.506 189.05 132.506 191.147C132.506 193.245 134.209 194.945 136.31 194.945Z" fill="#44C2AB"/>
<path d="M147.405 194.945C149.506 194.945 151.209 193.245 151.209 191.147C151.209 189.05 149.506 187.35 147.405 187.35C145.304 187.35 143.601 189.05 143.601 191.147C143.601 193.245 145.304 194.945 147.405 194.945Z" fill="#44C2AB"/>
<path d="M206.336 191.773C206.672 189.703 205.264 187.752 203.19 187.416C201.117 187.08 199.163 188.486 198.826 190.556C198.489 192.626 199.898 194.577 201.971 194.913C204.045 195.249 205.999 193.843 206.336 191.773Z" fill="#44C2AB"/>
<path d="M213.658 194.945C215.759 194.945 217.462 193.245 217.462 191.147C217.462 189.05 215.759 187.35 213.658 187.35C211.557 187.35 209.854 189.05 209.854 191.147C209.854 193.245 211.557 194.945 213.658 194.945Z" fill="#44C2AB"/>
<path d="M224.753 194.945C226.854 194.945 228.557 193.245 228.557 191.147C228.557 189.05 226.854 187.35 224.753 187.35C222.652 187.35 220.949 189.05 220.949 191.147C220.949 193.245 222.652 194.945 224.753 194.945Z" fill="#44C2AB"/>
<path d="M235.848 194.945C237.949 194.945 239.652 193.245 239.652 191.147C239.652 189.05 237.949 187.35 235.848 187.35C233.747 187.35 232.044 189.05 232.044 191.147C232.044 193.245 233.747 194.945 235.848 194.945Z" fill="#44C2AB"/>
<path d="M246.943 194.945C249.044 194.945 250.747 193.245 250.747 191.147C250.747 189.05 249.044 187.35 246.943 187.35C244.842 187.35 243.139 189.05 243.139 191.147C243.139 193.245 244.842 194.945 246.943 194.945Z" fill="#44C2AB"/>
<path d="M258.038 194.945C260.139 194.945 261.842 193.245 261.842 191.147C261.842 189.05 260.139 187.35 258.038 187.35C255.937 187.35 254.234 189.05 254.234 191.147C254.234 193.245 255.937 194.945 258.038 194.945Z" fill="#44C2AB"/>
<path d="M25.9939 206.022C28.0948 206.022 29.7979 204.321 29.7979 202.224C29.7979 200.127 28.0948 198.426 25.9939 198.426C23.8931 198.426 22.1899 200.127 22.1899 202.224C22.1899 204.321 23.8931 206.022 25.9939 206.022Z" fill="#44C2AB"/>
<path d="M37.089 206.022C39.1899 206.022 40.893 204.321 40.893 202.224C40.893 200.127 39.1899 198.426 37.089 198.426C34.9881 198.426 33.285 200.127 33.285 202.224C33.285 204.321 34.9881 206.022 37.089 206.022Z" fill="#44C2AB"/>
<path d="M48.184 206.022C50.2849 206.022 51.988 204.321 51.988 202.224C51.988 200.127 50.2849 198.426 48.184 198.426C46.0831 198.426 44.38 200.127 44.38 202.224C44.38 204.321 46.0831 206.022 48.184 206.022Z" fill="#44C2AB"/>
<path d="M58.962 206.022C61.0628 206.022 62.766 204.321 62.766 202.224C62.766 200.127 61.0628 198.426 58.962 198.426C56.8611 198.426 55.158 200.127 55.158 202.224C55.158 204.321 56.8611 206.022 58.962 206.022Z" fill="#44C2AB"/>
<path d="M70.0569 206.022C72.1578 206.022 73.8609 204.321 73.8609 202.224C73.8609 200.127 72.1578 198.426 70.0569 198.426C67.956 198.426 66.2529 200.127 66.2529 202.224C66.2529 204.321 67.956 206.022 70.0569 206.022Z" fill="#44C2AB"/>
<path d="M81.152 206.022C83.2529 206.022 84.956 204.321 84.956 202.224C84.956 200.127 83.2529 198.426 81.152 198.426C79.0511 198.426 77.348 200.127 77.348 202.224C77.348 204.321 79.0511 206.022 81.152 206.022Z" fill="#44C2AB"/>
<path d="M92.247 206.022C94.3479 206.022 96.051 204.321 96.051 202.224C96.051 200.127 94.3479 198.426 92.247 198.426C90.1461 198.426 88.443 200.127 88.443 202.224C88.443 204.321 90.1461 206.022 92.247 206.022Z" fill="#44C2AB"/>
<path d="M103.342 206.022C105.443 206.022 107.146 204.321 107.146 202.224C107.146 200.127 105.443 198.426 103.342 198.426C101.241 198.426 99.538 200.127 99.538 202.224C99.538 204.321 101.241 206.022 103.342 206.022Z" fill="#44C2AB"/>
<path d="M114.437 206.022C116.538 206.022 118.241 204.321 118.241 202.224C118.241 200.127 116.538 198.426 114.437 198.426C112.336 198.426 110.633 200.127 110.633 202.224C110.633 204.321 112.336 206.022 114.437 206.022Z" fill="#44C2AB"/>
<path d="M125.215 206.022C127.316 206.022 129.019 204.321 129.019 202.224C129.019 200.127 127.316 198.426 125.215 198.426C123.114 198.426 121.411 200.127 121.411 202.224C121.411 204.321 123.114 206.022 125.215 206.022Z" fill="#44C2AB"/>
<path d="M136.31 206.022C138.411 206.022 140.114 204.321 140.114 202.224C140.114 200.127 138.411 198.426 136.31 198.426C134.209 198.426 132.506 200.127 132.506 202.224C132.506 204.321 134.209 206.022 136.31 206.022Z" fill="#44C2AB"/>
<path d="M147.405 206.022C149.506 206.022 151.209 204.321 151.209 202.224C151.209 200.127 149.506 198.426 147.405 198.426C145.304 198.426 143.601 200.127 143.601 202.224C143.601 204.321 145.304 206.022 147.405 206.022Z" fill="#44C2AB"/>
<path d="M202.563 206.022C204.664 206.022 206.367 204.321 206.367 202.224C206.367 200.127 204.664 198.426 202.563 198.426C200.462 198.426 198.759 200.127 198.759 202.224C198.759 204.321 200.462 206.022 202.563 206.022Z" fill="#44C2AB"/>
<path d="M213.658 206.022C215.759 206.022 217.462 204.321 217.462 202.224C217.462 200.127 215.759 198.426 213.658 198.426C211.557 198.426 209.854 200.127 209.854 202.224C209.854 204.321 211.557 206.022 213.658 206.022Z" fill="#44C2AB"/>
<path d="M224.753 206.022C226.854 206.022 228.557 204.321 228.557 202.224C228.557 200.127 226.854 198.426 224.753 198.426C222.652 198.426 220.949 200.127 220.949 202.224C220.949 204.321 222.652 206.022 224.753 206.022Z" fill="#44C2AB"/>
<path d="M235.848 206.022C237.949 206.022 239.652 204.321 239.652 202.224C239.652 200.127 237.949 198.426 235.848 198.426C233.747 198.426 232.044 200.127 232.044 202.224C232.044 204.321 233.747 206.022 235.848 206.022Z" fill="#44C2AB"/>
<path d="M246.943 206.022C249.044 206.022 250.747 204.321 250.747 202.224C250.747 200.127 249.044 198.426 246.943 198.426C244.842 198.426 243.139 200.127 243.139 202.224C243.139 204.321 244.842 206.022 246.943 206.022Z" fill="#44C2AB"/>
<path d="M258.038 206.022C260.139 206.022 261.842 204.321 261.842 202.224C261.842 200.127 260.139 198.426 258.038 198.426C255.937 198.426 254.234 200.127 254.234 202.224C254.234 204.321 255.937 206.022 258.038 206.022Z" fill="#44C2AB"/>
<path d="M268.816 206.022C270.917 206.022 272.62 204.321 272.62 202.224C272.62 200.127 270.917 198.426 268.816 198.426C266.715 198.426 265.012 200.127 265.012 202.224C265.012 204.321 266.715 206.022 268.816 206.022Z" fill="#44C2AB"/>
<path d="M279.911 206.022C282.012 206.022 283.715 204.321 283.715 202.224C283.715 200.127 282.012 198.426 279.911 198.426C277.81 198.426 276.107 200.127 276.107 202.224C276.107 204.321 277.81 206.022 279.911 206.022Z" fill="#44C2AB"/>
<path d="M25.9939 217.098C28.0948 217.098 29.7979 215.398 29.7979 213.3C29.7979 211.203 28.0948 209.503 25.9939 209.503C23.8931 209.503 22.1899 211.203 22.1899 213.3C22.1899 215.398 23.8931 217.098 25.9939 217.098Z" fill="#44C2AB"/>
<path d="M37.089 217.098C39.1899 217.098 40.893 215.398 40.893 213.3C40.893 211.203 39.1899 209.503 37.089 209.503C34.9881 209.503 33.285 211.203 33.285 213.3C33.285 215.398 34.9881 217.098 37.089 217.098Z" fill="#44C2AB"/>
<path d="M48.184 217.098C50.2849 217.098 51.988 215.398 51.988 213.3C51.988 211.203 50.2849 209.503 48.184 209.503C46.0831 209.503 44.38 211.203 44.38 213.3C44.38 215.398 46.0831 217.098 48.184 217.098Z" fill="#44C2AB"/>
<path d="M58.962 217.098C61.0628 217.098 62.766 215.398 62.766 213.3C62.766 211.203 61.0628 209.503 58.962 209.503C56.8611 209.503 55.158 211.203 55.158 213.3C55.158 215.398 56.8611 217.098 58.962 217.098Z" fill="#44C2AB"/>
<path d="M70.0569 217.098C72.1578 217.098 73.8609 215.398 73.8609 213.3C73.8609 211.203 72.1578 209.503 70.0569 209.503C67.956 209.503 66.2529 211.203 66.2529 213.3C66.2529 215.398 67.956 217.098 70.0569 217.098Z" fill="#44C2AB"/>
<path d="M81.152 217.098C83.2529 217.098 84.956 215.398 84.956 213.3C84.956 211.203 83.2529 209.503 81.152 209.503C79.0511 209.503 77.348 211.203 77.348 213.3C77.348 215.398 79.0511 217.098 81.152 217.098Z" fill="#44C2AB"/>
<path d="M92.247 217.098C94.3479 217.098 96.051 215.398 96.051 213.3C96.051 211.203 94.3479 209.503 92.247 209.503C90.1461 209.503 88.443 211.203 88.443 213.3C88.443 215.398 90.1461 217.098 92.247 217.098Z" fill="#44C2AB"/>
<path d="M103.342 217.098C105.443 217.098 107.146 215.398 107.146 213.3C107.146 211.203 105.443 209.503 103.342 209.503C101.241 209.503 99.538 211.203 99.538 213.3C99.538 215.398 101.241 217.098 103.342 217.098Z" fill="#44C2AB"/>
<path d="M114.437 217.098C116.538 217.098 118.241 215.398 118.241 213.3C118.241 211.203 116.538 209.503 114.437 209.503C112.336 209.503 110.633 211.203 110.633 213.3C110.633 215.398 112.336 217.098 114.437 217.098Z" fill="#44C2AB"/>
<path d="M125.215 217.098C127.316 217.098 129.019 215.398 129.019 213.3C129.019 211.203 127.316 209.503 125.215 209.503C123.114 209.503 121.411 211.203 121.411 213.3C121.411 215.398 123.114 217.098 125.215 217.098Z" fill="#44C2AB"/>
<path d="M136.31 217.098C138.411 217.098 140.114 215.398 140.114 213.3C140.114 211.203 138.411 209.503 136.31 209.503C134.209 209.503 132.506 211.203 132.506 213.3C132.506 215.398 134.209 217.098 136.31 217.098Z" fill="#44C2AB"/>
<path d="M147.405 217.098C149.506 217.098 151.209 215.398 151.209 213.3C151.209 211.203 149.506 209.503 147.405 209.503C145.304 209.503 143.601 211.203 143.601 213.3C143.601 215.398 145.304 217.098 147.405 217.098Z" fill="#44C2AB"/>
<path d="M158.5 217.098C160.601 217.098 162.304 215.398 162.304 213.3C162.304 211.203 160.601 209.503 158.5 209.503C156.399 209.503 154.696 211.203 154.696 213.3C154.696 215.398 156.399 217.098 158.5 217.098Z" fill="#44C2AB"/>
<path d="M169.595 217.098C171.696 217.098 173.399 215.398 173.399 213.3C173.399 211.203 171.696 209.503 169.595 209.503C167.494 209.503 165.791 211.203 165.791 213.3C165.791 215.398 167.494 217.098 169.595 217.098Z" fill="#44C2AB"/>
<path d="M213.658 217.098C215.759 217.098 217.462 215.398 217.462 213.3C217.462 211.203 215.759 209.503 213.658 209.503C211.557 209.503 209.854 211.203 209.854 213.3C209.854 215.398 211.557 217.098 213.658 217.098Z" fill="#44C2AB"/>
<path d="M224.753 217.098C226.854 217.098 228.557 215.398 228.557 213.3C228.557 211.203 226.854 209.503 224.753 209.503C222.652 209.503 220.949 211.203 220.949 213.3C220.949 215.398 222.652 217.098 224.753 217.098Z" fill="#44C2AB"/>
<path d="M235.848 217.098C237.949 217.098 239.652 215.398 239.652 213.3C239.652 211.203 237.949 209.503 235.848 209.503C233.747 209.503 232.044 211.203 232.044 213.3C232.044 215.398 233.747 217.098 235.848 217.098Z" fill="#44C2AB"/>
<path d="M246.943 217.098C249.044 217.098 250.747 215.398 250.747 213.3C250.747 211.203 249.044 209.503 246.943 209.503C244.842 209.503 243.139 211.203 243.139 213.3C243.139 215.398 244.842 217.098 246.943 217.098Z" fill="#44C2AB"/>
<path d="M258.038 217.098C260.139 217.098 261.842 215.398 261.842 213.3C261.842 211.203 260.139 209.503 258.038 209.503C255.937 209.503 254.234 211.203 254.234 213.3C254.234 215.398 255.937 217.098 258.038 217.098Z" fill="#44C2AB"/>
<path d="M268.816 217.098C270.917 217.098 272.62 215.398 272.62 213.3C272.62 211.203 270.917 209.503 268.816 209.503C266.715 209.503 265.012 211.203 265.012 213.3C265.012 215.398 266.715 217.098 268.816 217.098Z" fill="#44C2AB"/>
<path d="M279.911 217.098C282.012 217.098 283.715 215.398 283.715 213.3C283.715 211.203 282.012 209.503 279.911 209.503C277.81 209.503 276.107 211.203 276.107 213.3C276.107 215.398 277.81 217.098 279.911 217.098Z" fill="#44C2AB"/>
<path d="M291.006 217.098C293.107 217.098 294.81 215.398 294.81 213.3C294.81 211.203 293.107 209.503 291.006 209.503C288.905 209.503 287.202 211.203 287.202 213.3C287.202 215.398 288.905 217.098 291.006 217.098Z" fill="#44C2AB"/>
<path d="M25.9939 227.858C28.0948 227.858 29.7979 226.158 29.7979 224.06C29.7979 221.963 28.0948 220.263 25.9939 220.263C23.8931 220.263 22.1899 221.963 22.1899 224.06C22.1899 226.158 23.8931 227.858 25.9939 227.858Z" fill="#44C2AB"/>
<path d="M37.089 227.858C39.1899 227.858 40.893 226.158 40.893 224.06C40.893 221.963 39.1899 220.263 37.089 220.263C34.9881 220.263 33.285 221.963 33.285 224.06C33.285 226.158 34.9881 227.858 37.089 227.858Z" fill="#44C2AB"/>
<path d="M48.184 227.858C50.2849 227.858 51.988 226.158 51.988 224.06C51.988 221.963 50.2849 220.263 48.184 220.263C46.0831 220.263 44.38 221.963 44.38 224.06C44.38 226.158 46.0831 227.858 48.184 227.858Z" fill="#44C2AB"/>
<path d="M58.962 227.858C61.0628 227.858 62.766 226.158 62.766 224.06C62.766 221.963 61.0628 220.263 58.962 220.263C56.8611 220.263 55.158 221.963 55.158 224.06C55.158 226.158 56.8611 227.858 58.962 227.858Z" fill="#44C2AB"/>
<path d="M70.0569 227.858C72.1578 227.858 73.8609 226.158 73.8609 224.06C73.8609 221.963 72.1578 220.263 70.0569 220.263C67.956 220.263 66.2529 221.963 66.2529 224.06C66.2529 226.158 67.956 227.858 70.0569 227.858Z" fill="#44C2AB"/>
<path d="M81.152 227.858C83.2529 227.858 84.956 226.158 84.956 224.06C84.956 221.963 83.2529 220.263 81.152 220.263C79.0511 220.263 77.348 221.963 77.348 224.06C77.348 226.158 79.0511 227.858 81.152 227.858Z" fill="#44C2AB"/>
<path d="M92.247 227.858C94.3479 227.858 96.051 226.158 96.051 224.06C96.051 221.963 94.3479 220.263 92.247 220.263C90.1461 220.263 88.443 221.963 88.443 224.06C88.443 226.158 90.1461 227.858 92.247 227.858Z" fill="#44C2AB"/>
<path d="M103.342 227.858C105.443 227.858 107.146 226.158 107.146 224.06C107.146 221.963 105.443 220.263 103.342 220.263C101.241 220.263 99.538 221.963 99.538 224.06C99.538 226.158 101.241 227.858 103.342 227.858Z" fill="#44C2AB"/>
<path d="M114.437 227.858C116.538 227.858 118.241 226.158 118.241 224.06C118.241 221.963 116.538 220.263 114.437 220.263C112.336 220.263 110.633 221.963 110.633 224.06C110.633 226.158 112.336 227.858 114.437 227.858Z" fill="#44C2AB"/>
<path d="M125.215 227.858C127.316 227.858 129.019 226.158 129.019 224.06C129.019 221.963 127.316 220.263 125.215 220.263C123.114 220.263 121.411 221.963 121.411 224.06C121.411 226.158 123.114 227.858 125.215 227.858Z" fill="#44C2AB"/>
<path d="M136.31 227.858C138.411 227.858 140.114 226.158 140.114 224.06C140.114 221.963 138.411 220.263 136.31 220.263C134.209 220.263 132.506 221.963 132.506 224.06C132.506 226.158 134.209 227.858 136.31 227.858Z" fill="#44C2AB"/>
<path d="M147.405 227.858C149.506 227.858 151.209 226.158 151.209 224.06C151.209 221.963 149.506 220.263 147.405 220.263C145.304 220.263 143.601 221.963 143.601 224.06C143.601 226.158 145.304 227.858 147.405 227.858Z" fill="#44C2AB"/>
<path d="M158.5 227.858C160.601 227.858 162.304 226.158 162.304 224.06C162.304 221.963 160.601 220.263 158.5 220.263C156.399 220.263 154.696 221.963 154.696 224.06C154.696 226.158 156.399 227.858 158.5 227.858Z" fill="#44C2AB"/>
<path d="M169.595 227.858C171.696 227.858 173.399 226.158 173.399 224.06C173.399 221.963 171.696 220.263 169.595 220.263C167.494 220.263 165.791 221.963 165.791 224.06C165.791 226.158 167.494 227.858 169.595 227.858Z" fill="#44C2AB"/>
<path d="M180.69 227.858C182.791 227.858 184.494 226.158 184.494 224.06C184.494 221.963 182.791 220.263 180.69 220.263C178.589 220.263 176.886 221.963 176.886 224.06C176.886 226.158 178.589 227.858 180.69 227.858Z" fill="#44C2AB"/>
<path d="M191.785 227.858C193.886 227.858 195.589 226.158 195.589 224.06C195.589 221.963 193.886 220.263 191.785 220.263C189.684 220.263 187.981 221.963 187.981 224.06C187.981 226.158 189.684 227.858 191.785 227.858Z" fill="#44C2AB"/>
<path d="M213.658 227.858C215.759 227.858 217.462 226.158 217.462 224.06C217.462 221.963 215.759 220.263 213.658 220.263C211.557 220.263 209.854 221.963 209.854 224.06C209.854 226.158 211.557 227.858 213.658 227.858Z" fill="#44C2AB"/>
<path d="M224.753 227.858C226.854 227.858 228.557 226.158 228.557 224.06C228.557 221.963 226.854 220.263 224.753 220.263C222.652 220.263 220.949 221.963 220.949 224.06C220.949 226.158 222.652 227.858 224.753 227.858Z" fill="#44C2AB"/>
<path d="M235.848 227.858C237.949 227.858 239.652 226.158 239.652 224.06C239.652 221.963 237.949 220.263 235.848 220.263C233.747 220.263 232.044 221.963 232.044 224.06C232.044 226.158 233.747 227.858 235.848 227.858Z" fill="#44C2AB"/>
<path d="M246.943 227.858C249.044 227.858 250.747 226.158 250.747 224.06C250.747 221.963 249.044 220.263 246.943 220.263C244.842 220.263 243.139 221.963 243.139 224.06C243.139 226.158 244.842 227.858 246.943 227.858Z" fill="#44C2AB"/>
<path d="M258.038 227.858C260.139 227.858 261.842 226.158 261.842 224.06C261.842 221.963 260.139 220.263 258.038 220.263C255.937 220.263 254.234 221.963 254.234 224.06C254.234 226.158 255.937 227.858 258.038 227.858Z" fill="#44C2AB"/>
<path d="M268.816 227.858C270.917 227.858 272.62 226.158 272.62 224.06C272.62 221.963 270.917 220.263 268.816 220.263C266.715 220.263 265.012 221.963 265.012 224.06C265.012 226.158 266.715 227.858 268.816 227.858Z" fill="#44C2AB"/>
<path d="M279.911 227.858C282.012 227.858 283.715 226.158 283.715 224.06C283.715 221.963 282.012 220.263 279.911 220.263C277.81 220.263 276.107 221.963 276.107 224.06C276.107 226.158 277.81 227.858 279.911 227.858Z" fill="#44C2AB"/>
<path d="M291.006 227.858C293.107 227.858 294.81 226.158 294.81 224.06C294.81 221.963 293.107 220.263 291.006 220.263C288.905 220.263 287.202 221.963 287.202 224.06C287.202 226.158 288.905 227.858 291.006 227.858Z" fill="#44C2AB"/>
<path d="M302.101 227.858C304.202 227.858 305.905 226.158 305.905 224.06C305.905 221.963 304.202 220.263 302.101 220.263C300 220.263 298.297 221.963 298.297 224.06C298.297 226.158 300 227.858 302.101 227.858Z" fill="#44C2AB"/>
<path d="M37.089 238.934C39.1899 238.934 40.893 237.234 40.893 235.137C40.893 233.039 39.1899 231.339 37.089 231.339C34.9881 231.339 33.285 233.039 33.285 235.137C33.285 237.234 34.9881 238.934 37.089 238.934Z" fill="#44C2AB"/>
<path d="M48.184 238.934C50.2849 238.934 51.988 237.234 51.988 235.137C51.988 233.039 50.2849 231.339 48.184 231.339C46.0831 231.339 44.38 233.039 44.38 235.137C44.38 237.234 46.0831 238.934 48.184 238.934Z" fill="#44C2AB"/>
<path d="M58.962 238.934C61.0628 238.934 62.766 237.234 62.766 235.137C62.766 233.039 61.0628 231.339 58.962 231.339C56.8611 231.339 55.158 233.039 55.158 235.137C55.158 237.234 56.8611 238.934 58.962 238.934Z" fill="#44C2AB"/>
<path d="M70.0569 238.934C72.1578 238.934 73.8609 237.234 73.8609 235.137C73.8609 233.039 72.1578 231.339 70.0569 231.339C67.956 231.339 66.2529 233.039 66.2529 235.137C66.2529 237.234 67.956 238.934 70.0569 238.934Z" fill="#44C2AB"/>
<path d="M81.152 238.934C83.2529 238.934 84.956 237.234 84.956 235.137C84.956 233.039 83.2529 231.339 81.152 231.339C79.0511 231.339 77.348 233.039 77.348 235.137C77.348 237.234 79.0511 238.934 81.152 238.934Z" fill="#44C2AB"/>
<path d="M92.247 238.934C94.3479 238.934 96.051 237.234 96.051 235.137C96.051 233.039 94.3479 231.339 92.247 231.339C90.1461 231.339 88.443 233.039 88.443 235.137C88.443 237.234 90.1461 238.934 92.247 238.934Z" fill="#44C2AB"/>
<path d="M103.342 238.934C105.443 238.934 107.146 237.234 107.146 235.137C107.146 233.039 105.443 231.339 103.342 231.339C101.241 231.339 99.538 233.039 99.538 235.137C99.538 237.234 101.241 238.934 103.342 238.934Z" fill="#44C2AB"/>
<path d="M114.437 238.934C116.538 238.934 118.241 237.234 118.241 235.137C118.241 233.039 116.538 231.339 114.437 231.339C112.336 231.339 110.633 233.039 110.633 235.137C110.633 237.234 112.336 238.934 114.437 238.934Z" fill="#44C2AB"/>
<path d="M125.215 238.934C127.316 238.934 129.019 237.234 129.019 235.137C129.019 233.039 127.316 231.339 125.215 231.339C123.114 231.339 121.411 233.039 121.411 235.137C121.411 237.234 123.114 238.934 125.215 238.934Z" fill="#44C2AB"/>
<path d="M136.31 238.934C138.411 238.934 140.114 237.234 140.114 235.137C140.114 233.039 138.411 231.339 136.31 231.339C134.209 231.339 132.506 233.039 132.506 235.137C132.506 237.234 134.209 238.934 136.31 238.934Z" fill="#44C2AB"/>
<path d="M147.405 238.934C149.506 238.934 151.209 237.234 151.209 235.137C151.209 233.039 149.506 231.339 147.405 231.339C145.304 231.339 143.601 233.039 143.601 235.137C143.601 237.234 145.304 238.934 147.405 238.934Z" fill="#44C2AB"/>
<path d="M158.5 238.934C160.601 238.934 162.304 237.234 162.304 235.137C162.304 233.039 160.601 231.339 158.5 231.339C156.399 231.339 154.696 233.039 154.696 235.137C154.696 237.234 156.399 238.934 158.5 238.934Z" fill="#44C2AB"/>
<path d="M169.595 238.934C171.696 238.934 173.399 237.234 173.399 235.137C173.399 233.039 171.696 231.339 169.595 231.339C167.494 231.339 165.791 233.039 165.791 235.137C165.791 237.234 167.494 238.934 169.595 238.934Z" fill="#44C2AB"/>
<path d="M180.69 238.934C182.791 238.934 184.494 237.234 184.494 235.137C184.494 233.039 182.791 231.339 180.69 231.339C178.589 231.339 176.886 233.039 176.886 235.137C176.886 237.234 178.589 238.934 180.69 238.934Z" fill="#44C2AB"/>
<path d="M191.785 238.934C193.886 238.934 195.589 237.234 195.589 235.137C195.589 233.039 193.886 231.339 191.785 231.339C189.684 231.339 187.981 233.039 187.981 235.137C187.981 237.234 189.684 238.934 191.785 238.934Z" fill="#44C2AB"/>
<path d="M213.658 238.934C215.759 238.934 217.462 237.234 217.462 235.137C217.462 233.039 215.759 231.339 213.658 231.339C211.557 231.339 209.854 233.039 209.854 235.137C209.854 237.234 211.557 238.934 213.658 238.934Z" fill="#44C2AB"/>
<path d="M224.753 238.934C226.854 238.934 228.557 237.234 228.557 235.137C228.557 233.039 226.854 231.339 224.753 231.339C222.652 231.339 220.949 233.039 220.949 235.137C220.949 237.234 222.652 238.934 224.753 238.934Z" fill="#44C2AB"/>
<path d="M235.848 238.934C237.949 238.934 239.652 237.234 239.652 235.137C239.652 233.039 237.949 231.339 235.848 231.339C233.747 231.339 232.044 233.039 232.044 235.137C232.044 237.234 233.747 238.934 235.848 238.934Z" fill="#44C2AB"/>
<path d="M246.943 238.934C249.044 238.934 250.747 237.234 250.747 235.137C250.747 233.039 249.044 231.339 246.943 231.339C244.842 231.339 243.139 233.039 243.139 235.137C243.139 237.234 244.842 238.934 246.943 238.934Z" fill="#44C2AB"/>
<path d="M258.038 238.934C260.139 238.934 261.842 237.234 261.842 235.137C261.842 233.039 260.139 231.339 258.038 231.339C255.937 231.339 254.234 233.039 254.234 235.137C254.234 237.234 255.937 238.934 258.038 238.934Z" fill="#44C2AB"/>
<path d="M268.816 238.934C270.917 238.934 272.62 237.234 272.62 235.137C272.62 233.039 270.917 231.339 268.816 231.339C266.715 231.339 265.012 233.039 265.012 235.137C265.012 237.234 266.715 238.934 268.816 238.934Z" fill="#44C2AB"/>
<path d="M291.006 238.934C293.107 238.934 294.81 237.234 294.81 235.137C294.81 233.039 293.107 231.339 291.006 231.339C288.905 231.339 287.202 233.039 287.202 235.137C287.202 237.234 288.905 238.934 291.006 238.934Z" fill="#44C2AB"/>
<path d="M302.101 238.934C304.202 238.934 305.905 237.234 305.905 235.137C305.905 233.039 304.202 231.339 302.101 231.339C300 231.339 298.297 233.039 298.297 235.137C298.297 237.234 300 238.934 302.101 238.934Z" fill="#44C2AB"/>
<path d="M313.196 238.934C315.297 238.934 317 237.234 317 235.137C317 233.039 315.297 231.339 313.196 231.339C311.095 231.339 309.392 233.039 309.392 235.137C309.392 237.234 311.095 238.934 313.196 238.934Z" fill="#44C2AB"/>
<path d="M37.089 250.011C39.1899 250.011 40.893 248.311 40.893 246.213C40.893 244.116 39.1899 242.416 37.089 242.416C34.9881 242.416 33.285 244.116 33.285 246.213C33.285 248.311 34.9881 250.011 37.089 250.011Z" fill="#44C2AB"/>
<path d="M48.184 250.011C50.2849 250.011 51.988 248.311 51.988 246.213C51.988 244.116 50.2849 242.416 48.184 242.416C46.0831 242.416 44.38 244.116 44.38 246.213C44.38 248.311 46.0831 250.011 48.184 250.011Z" fill="#44C2AB"/>
<path d="M58.962 250.011C61.0628 250.011 62.766 248.311 62.766 246.213C62.766 244.116 61.0628 242.416 58.962 242.416C56.8611 242.416 55.158 244.116 55.158 246.213C55.158 248.311 56.8611 250.011 58.962 250.011Z" fill="#44C2AB"/>
<path d="M70.0569 250.011C72.1578 250.011 73.8609 248.311 73.8609 246.213C73.8609 244.116 72.1578 242.416 70.0569 242.416C67.956 242.416 66.2529 244.116 66.2529 246.213C66.2529 248.311 67.956 250.011 70.0569 250.011Z" fill="#44C2AB"/>
<path d="M81.152 250.011C83.2529 250.011 84.956 248.311 84.956 246.213C84.956 244.116 83.2529 242.416 81.152 242.416C79.0511 242.416 77.348 244.116 77.348 246.213C77.348 248.311 79.0511 250.011 81.152 250.011Z" fill="#44C2AB"/>
<path d="M92.247 250.011C94.3479 250.011 96.051 248.311 96.051 246.213C96.051 244.116 94.3479 242.416 92.247 242.416C90.1461 242.416 88.443 244.116 88.443 246.213C88.443 248.311 90.1461 250.011 92.247 250.011Z" fill="#44C2AB"/>
<path d="M103.342 250.011C105.443 250.011 107.146 248.311 107.146 246.213C107.146 244.116 105.443 242.416 103.342 242.416C101.241 242.416 99.538 244.116 99.538 246.213C99.538 248.311 101.241 250.011 103.342 250.011Z" fill="#44C2AB"/>
<path d="M114.437 250.011C116.538 250.011 118.241 248.311 118.241 246.213C118.241 244.116 116.538 242.416 114.437 242.416C112.336 242.416 110.633 244.116 110.633 246.213C110.633 248.311 112.336 250.011 114.437 250.011Z" fill="#44C2AB"/>
<path d="M125.215 250.011C127.316 250.011 129.019 248.311 129.019 246.213C129.019 244.116 127.316 242.416 125.215 242.416C123.114 242.416 121.411 244.116 121.411 246.213C121.411 248.311 123.114 250.011 125.215 250.011Z" fill="#44C2AB"/>
<path d="M136.31 250.011C138.411 250.011 140.114 248.311 140.114 246.213C140.114 244.116 138.411 242.416 136.31 242.416C134.209 242.416 132.506 244.116 132.506 246.213C132.506 248.311 134.209 250.011 136.31 250.011Z" fill="#44C2AB"/>
<path d="M147.405 250.011C149.506 250.011 151.209 248.311 151.209 246.213C151.209 244.116 149.506 242.416 147.405 242.416C145.304 242.416 143.601 244.116 143.601 246.213C143.601 248.311 145.304 250.011 147.405 250.011Z" fill="#44C2AB"/>
<path d="M158.5 250.011C160.601 250.011 162.304 248.311 162.304 246.213C162.304 244.116 160.601 242.416 158.5 242.416C156.399 242.416 154.696 244.116 154.696 246.213C154.696 248.311 156.399 250.011 158.5 250.011Z" fill="#44C2AB"/>
<path d="M169.595 250.011C171.696 250.011 173.399 248.311 173.399 246.213C173.399 244.116 171.696 242.416 169.595 242.416C167.494 242.416 165.791 244.116 165.791 246.213C165.791 248.311 167.494 250.011 169.595 250.011Z" fill="#44C2AB"/>
<path d="M180.69 250.011C182.791 250.011 184.494 248.311 184.494 246.213C184.494 244.116 182.791 242.416 180.69 242.416C178.589 242.416 176.886 244.116 176.886 246.213C176.886 248.311 178.589 250.011 180.69 250.011Z" fill="#44C2AB"/>
<path d="M191.785 250.011C193.886 250.011 195.589 248.311 195.589 246.213C195.589 244.116 193.886 242.416 191.785 242.416C189.684 242.416 187.981 244.116 187.981 246.213C187.981 248.311 189.684 250.011 191.785 250.011Z" fill="#44C2AB"/>
<path d="M202.563 250.011C204.664 250.011 206.367 248.311 206.367 246.213C206.367 244.116 204.664 242.416 202.563 242.416C200.462 242.416 198.759 244.116 198.759 246.213C198.759 248.311 200.462 250.011 202.563 250.011Z" fill="#44C2AB"/>
<path d="M213.658 250.011C215.759 250.011 217.462 248.311 217.462 246.213C217.462 244.116 215.759 242.416 213.658 242.416C211.557 242.416 209.854 244.116 209.854 246.213C209.854 248.311 211.557 250.011 213.658 250.011Z" fill="#44C2AB"/>
<path d="M224.753 250.011C226.854 250.011 228.557 248.311 228.557 246.213C228.557 244.116 226.854 242.416 224.753 242.416C222.652 242.416 220.949 244.116 220.949 246.213C220.949 248.311 222.652 250.011 224.753 250.011Z" fill="#44C2AB"/>
<path d="M235.848 250.011C237.949 250.011 239.652 248.311 239.652 246.213C239.652 244.116 237.949 242.416 235.848 242.416C233.747 242.416 232.044 244.116 232.044 246.213C232.044 248.311 233.747 250.011 235.848 250.011Z" fill="#44C2AB"/>
<path d="M246.943 250.011C249.044 250.011 250.747 248.311 250.747 246.213C250.747 244.116 249.044 242.416 246.943 242.416C244.842 242.416 243.139 244.116 243.139 246.213C243.139 248.311 244.842 250.011 246.943 250.011Z" fill="#44C2AB"/>
<path d="M258.038 250.011C260.139 250.011 261.842 248.311 261.842 246.213C261.842 244.116 260.139 242.416 258.038 242.416C255.937 242.416 254.234 244.116 254.234 246.213C254.234 248.311 255.937 250.011 258.038 250.011Z" fill="#44C2AB"/>
<path d="M268.816 250.011C270.917 250.011 272.62 248.311 272.62 246.213C272.62 244.116 270.917 242.416 268.816 242.416C266.715 242.416 265.012 244.116 265.012 246.213C265.012 248.311 266.715 250.011 268.816 250.011Z" fill="#44C2AB"/>
<path d="M48.184 261.087C50.2849 261.087 51.988 259.387 51.988 257.29C51.988 255.192 50.2849 253.492 48.184 253.492C46.0831 253.492 44.38 255.192 44.38 257.29C44.38 259.387 46.0831 261.087 48.184 261.087Z" fill="#44C2AB"/>
<path d="M58.962 261.087C61.0628 261.087 62.766 259.387 62.766 257.29C62.766 255.192 61.0628 253.492 58.962 253.492C56.8611 253.492 55.158 255.192 55.158 257.29C55.158 259.387 56.8611 261.087 58.962 261.087Z" fill="#44C2AB"/>
<path d="M70.0569 261.087C72.1578 261.087 73.8609 259.387 73.8609 257.29C73.8609 255.192 72.1578 253.492 70.0569 253.492C67.956 253.492 66.2529 255.192 66.2529 257.29C66.2529 259.387 67.956 261.087 70.0569 261.087Z" fill="#44C2AB"/>
<path d="M81.152 261.087C83.2529 261.087 84.956 259.387 84.956 257.29C84.956 255.192 83.2529 253.492 81.152 253.492C79.0511 253.492 77.348 255.192 77.348 257.29C77.348 259.387 79.0511 261.087 81.152 261.087Z" fill="#44C2AB"/>
<path d="M92.247 261.087C94.3479 261.087 96.051 259.387 96.051 257.29C96.051 255.192 94.3479 253.492 92.247 253.492C90.1461 253.492 88.443 255.192 88.443 257.29C88.443 259.387 90.1461 261.087 92.247 261.087Z" fill="#44C2AB"/>
<path d="M103.342 261.087C105.443 261.087 107.146 259.387 107.146 257.29C107.146 255.192 105.443 253.492 103.342 253.492C101.241 253.492 99.538 255.192 99.538 257.29C99.538 259.387 101.241 261.087 103.342 261.087Z" fill="#44C2AB"/>
<path d="M114.437 261.087C116.538 261.087 118.241 259.387 118.241 257.29C118.241 255.192 116.538 253.492 114.437 253.492C112.336 253.492 110.633 255.192 110.633 257.29C110.633 259.387 112.336 261.087 114.437 261.087Z" fill="#44C2AB"/>
<path d="M125.215 261.087C127.316 261.087 129.019 259.387 129.019 257.29C129.019 255.192 127.316 253.492 125.215 253.492C123.114 253.492 121.411 255.192 121.411 257.29C121.411 259.387 123.114 261.087 125.215 261.087Z" fill="#44C2AB"/>
<path d="M136.31 261.087C138.411 261.087 140.114 259.387 140.114 257.29C140.114 255.192 138.411 253.492 136.31 253.492C134.209 253.492 132.506 255.192 132.506 257.29C132.506 259.387 134.209 261.087 136.31 261.087Z" fill="#44C2AB"/>
<path d="M147.405 261.087C149.506 261.087 151.209 259.387 151.209 257.29C151.209 255.192 149.506 253.492 147.405 253.492C145.304 253.492 143.601 255.192 143.601 257.29C143.601 259.387 145.304 261.087 147.405 261.087Z" fill="#44C2AB"/>
<path d="M158.5 261.087C160.601 261.087 162.304 259.387 162.304 257.29C162.304 255.192 160.601 253.492 158.5 253.492C156.399 253.492 154.696 255.192 154.696 257.29C154.696 259.387 156.399 261.087 158.5 261.087Z" fill="#44C2AB"/>
<path d="M158.5 272.164C160.601 272.164 162.304 270.463 162.304 268.366C162.304 266.269 160.601 264.568 158.5 264.568C156.399 264.568 154.696 266.269 154.696 268.366C154.696 270.463 156.399 272.164 158.5 272.164Z" fill="#44C2AB"/>
<path d="M169.595 261.087C171.696 261.087 173.399 259.387 173.399 257.29C173.399 255.192 171.696 253.492 169.595 253.492C167.494 253.492 165.791 255.192 165.791 257.29C165.791 259.387 167.494 261.087 169.595 261.087Z" fill="#44C2AB"/>
<path d="M180.69 261.087C182.791 261.087 184.494 259.387 184.494 257.29C184.494 255.192 182.791 253.492 180.69 253.492C178.589 253.492 176.886 255.192 176.886 257.29C176.886 259.387 178.589 261.087 180.69 261.087Z" fill="#44C2AB"/>
<path d="M191.785 261.087C193.886 261.087 195.589 259.387 195.589 257.29C195.589 255.192 193.886 253.492 191.785 253.492C189.684 253.492 187.981 255.192 187.981 257.29C187.981 259.387 189.684 261.087 191.785 261.087Z" fill="#44C2AB"/>
<path d="M202.563 261.087C204.664 261.087 206.367 259.387 206.367 257.29C206.367 255.192 204.664 253.492 202.563 253.492C200.462 253.492 198.759 255.192 198.759 257.29C198.759 259.387 200.462 261.087 202.563 261.087Z" fill="#44C2AB"/>
<path d="M213.658 261.087C215.759 261.087 217.462 259.387 217.462 257.29C217.462 255.192 215.759 253.492 213.658 253.492C211.557 253.492 209.854 255.192 209.854 257.29C209.854 259.387 211.557 261.087 213.658 261.087Z" fill="#44C2AB"/>
<path d="M224.753 261.087C226.854 261.087 228.557 259.387 228.557 257.29C228.557 255.192 226.854 253.492 224.753 253.492C222.652 253.492 220.949 255.192 220.949 257.29C220.949 259.387 222.652 261.087 224.753 261.087Z" fill="#44C2AB"/>
<path d="M235.848 261.087C237.949 261.087 239.652 259.387 239.652 257.29C239.652 255.192 237.949 253.492 235.848 253.492C233.747 253.492 232.044 255.192 232.044 257.29C232.044 259.387 233.747 261.087 235.848 261.087Z" fill="#44C2AB"/>
<path d="M246.943 261.087C249.044 261.087 250.747 259.387 250.747 257.29C250.747 255.192 249.044 253.492 246.943 253.492C244.842 253.492 243.139 255.192 243.139 257.29C243.139 259.387 244.842 261.087 246.943 261.087Z" fill="#44C2AB"/>
<path d="M258.038 261.087C260.139 261.087 261.842 259.387 261.842 257.29C261.842 255.192 260.139 253.492 258.038 253.492C255.937 253.492 254.234 255.192 254.234 257.29C254.234 259.387 255.937 261.087 258.038 261.087Z" fill="#44C2AB"/>
<path d="M268.816 261.087C270.917 261.087 272.62 259.387 272.62 257.29C272.62 255.192 270.917 253.492 268.816 253.492C266.715 253.492 265.012 255.192 265.012 257.29C265.012 259.387 266.715 261.087 268.816 261.087Z" fill="#44C2AB"/>
<path d="M279.911 261.087C282.012 261.087 283.715 259.387 283.715 257.29C283.715 255.192 282.012 253.492 279.911 253.492C277.81 253.492 276.107 255.192 276.107 257.29C276.107 259.387 277.81 261.087 279.911 261.087Z" fill="#44C2AB"/>
<path d="M291.006 261.087C293.107 261.087 294.81 259.387 294.81 257.29C294.81 255.192 293.107 253.492 291.006 253.492C288.905 253.492 287.202 255.192 287.202 257.29C287.202 259.387 288.905 261.087 291.006 261.087Z" fill="#44C2AB"/>
<path d="M169.595 272.164C171.696 272.164 173.399 270.463 173.399 268.366C173.399 266.269 171.696 264.568 169.595 264.568C167.494 264.568 165.791 266.269 165.791 268.366C165.791 270.463 167.494 272.164 169.595 272.164Z" fill="#44C2AB"/>
<path d="M191.785 272.164C193.886 272.164 195.589 270.463 195.589 268.366C195.589 266.269 193.886 264.568 191.785 264.568C189.684 264.568 187.981 266.269 187.981 268.366C187.981 270.463 189.684 272.164 191.785 272.164Z" fill="#44C2AB"/>
<path d="M202.563 272.164C204.664 272.164 206.367 270.463 206.367 268.366C206.367 266.269 204.664 264.568 202.563 264.568C200.462 264.568 198.759 266.269 198.759 268.366C198.759 270.463 200.462 272.164 202.563 272.164Z" fill="#44C2AB"/>
<path d="M213.658 272.164C215.759 272.164 217.462 270.463 217.462 268.366C217.462 266.269 215.759 264.568 213.658 264.568C211.557 264.568 209.854 266.269 209.854 268.366C209.854 270.463 211.557 272.164 213.658 272.164Z" fill="#44C2AB"/>
<path d="M224.753 272.164C226.854 272.164 228.557 270.463 228.557 268.366C228.557 266.269 226.854 264.568 224.753 264.568C222.652 264.568 220.949 266.269 220.949 268.366C220.949 270.463 222.652 272.164 224.753 272.164Z" fill="#44C2AB"/>
<path d="M235.848 272.164C237.949 272.164 239.652 270.463 239.652 268.366C239.652 266.269 237.949 264.568 235.848 264.568C233.747 264.568 232.044 266.269 232.044 268.366C232.044 270.463 233.747 272.164 235.848 272.164Z" fill="#44C2AB"/>
<path d="M246.943 272.164C249.044 272.164 250.747 270.463 250.747 268.366C250.747 266.269 249.044 264.568 246.943 264.568C244.842 264.568 243.139 266.269 243.139 268.366C243.139 270.463 244.842 272.164 246.943 272.164Z" fill="#44C2AB"/>
<path d="M268.816 272.164C270.917 272.164 272.62 270.463 272.62 268.366C272.62 266.269 270.917 264.568 268.816 264.568C266.715 264.568 265.012 266.269 265.012 268.366C265.012 270.463 266.715 272.164 268.816 272.164Z" fill="#44C2AB"/>
<path d="M213.658 283.24C215.759 283.24 217.462 281.54 217.462 279.442C217.462 277.345 215.759 275.645 213.658 275.645C211.557 275.645 209.854 277.345 209.854 279.442C209.854 281.54 211.557 283.24 213.658 283.24Z" fill="#44C2AB"/>
<path d="M224.753 283.24C226.854 283.24 228.557 281.54 228.557 279.442C228.557 277.345 226.854 275.645 224.753 275.645C222.652 275.645 220.949 277.345 220.949 279.442C220.949 281.54 222.652 283.24 224.753 283.24Z" fill="#44C2AB"/>
<path d="M213.658 294C215.759 294 217.462 292.3 217.462 290.202C217.462 288.105 215.759 286.405 213.658 286.405C211.557 286.405 209.854 288.105 209.854 290.202C209.854 292.3 211.557 294 213.658 294Z" fill="#44C2AB"/>
</svg>
